<svg width="169" height="28" viewBox="0 0 169 28" fill="none" xmlns="http://www.w3.org/2000/svg">
<path d="M16.604 21.42H5.66L3.644 27H0.188L9.26 2.052H13.04L22.076 27H18.62L16.604 21.42ZM15.668 18.756L11.132 6.084L6.596 18.756H15.668ZM29.3058 10.944C29.9778 9.768 30.9618 8.808 32.2578 8.064C33.5538 7.32 35.0298 6.948 36.6858 6.948C38.4618 6.948 40.0578 7.368 41.4738 8.208C42.8898 9.048 44.0058 10.236 44.8218 11.772C45.6378 13.284 46.0458 15.048 46.0458 17.064C46.0458 19.056 45.6378 20.832 44.8218 22.392C44.0058 23.952 42.8778 25.164 41.4378 26.028C40.0218 26.892 38.4378 27.324 36.6858 27.324C34.9818 27.324 33.4818 26.952 32.1858 26.208C30.9138 25.464 29.9538 24.516 29.3058 23.364V27H26.0298V0.36H29.3058V10.944ZM42.6978 17.064C42.6978 15.576 42.3978 14.28 41.7978 13.176C41.1978 12.072 40.3818 11.232 39.3498 10.656C38.3418 10.08 37.2258 9.792 36.0018 9.792C34.8018 9.792 33.6858 10.092 32.6538 10.692C31.6458 11.268 30.8298 12.12 30.2058 13.248C29.6058 14.352 29.3058 15.636 29.3058 17.1C29.3058 18.588 29.6058 19.896 30.2058 21.024C30.8298 22.128 31.6458 22.98 32.6538 23.58C33.6858 24.156 34.8018 24.444 36.0018 24.444C37.2258 24.444 38.3418 24.156 39.3498 23.58C40.3818 22.98 41.1978 22.128 41.7978 21.024C42.3978 19.896 42.6978 18.576 42.6978 17.064ZM58.9619 27.324C57.1139 27.324 55.4339 26.904 53.9219 26.064C52.4339 25.224 51.2579 24.036 50.3939 22.5C49.5539 20.94 49.1339 19.14 49.1339 17.1C49.1339 15.084 49.5659 13.308 50.4299 11.772C51.3179 10.212 52.5179 9.024 54.0299 8.208C55.5419 7.368 57.2339 6.948 59.1059 6.948C60.9779 6.948 62.6699 7.368 64.1819 8.208C65.6939 9.024 66.8819 10.2 67.7459 11.736C68.6339 13.272 69.0779 15.06 69.0779 17.1C69.0779 19.14 68.6219 20.94 67.7099 22.5C66.8219 24.036 65.6099 25.224 64.0739 26.064C62.5379 26.904 60.8339 27.324 58.9619 27.324ZM58.9619 24.444C60.1379 24.444 61.2419 24.168 62.2739 23.616C63.3059 23.064 64.1339 22.236 64.7579 21.132C65.4059 20.028 65.7299 18.684 65.7299 17.1C65.7299 15.516 65.4179 14.172 64.7939 13.068C64.1699 11.964 63.3539 11.148 62.3459 10.62C61.3379 10.068 60.2459 9.792 59.0699 9.792C57.8699 9.792 56.7659 10.068 55.7579 10.62C54.7739 11.148 53.9819 11.964 53.3819 13.068C52.7819 14.172 52.4819 15.516 52.4819 17.1C52.4819 18.708 52.7699 20.064 53.3459 21.168C53.9459 22.272 54.7379 23.1 55.7219 23.652C56.7059 24.18 57.7859 24.444 58.9619 24.444ZM90.8813 7.272V27H87.6053V24.084C86.9813 25.092 86.1053 25.884 84.9773 26.46C83.8733 27.012 82.6493 27.288 81.3053 27.288C79.7693 27.288 78.3893 26.976 77.1653 26.352C75.9413 25.704 74.9693 24.744 74.2493 23.472C73.5533 22.2 73.2053 20.652 73.2053 18.828V7.272H76.4453V18.396C76.4453 20.34 76.9373 21.84 77.9213 22.896C78.9053 23.928 80.2493 24.444 81.9533 24.444C83.7053 24.444 85.0853 23.904 86.0933 22.824C87.1013 21.744 87.6053 20.172 87.6053 18.108V7.272H90.8813ZM100.409 9.972V21.6C100.409 22.56 100.613 23.244 101.021 23.652C101.429 24.036 102.137 24.228 103.145 24.228H105.557V27H102.605C100.781 27 99.4126 26.58 98.5006 25.74C97.5886 24.9 97.1326 23.52 97.1326 21.6V9.972H94.5766V7.272H97.1326V2.304H100.409V7.272H105.557V9.972H100.409ZM144.576 2.088V27H141.3V8.424L133.02 27H130.716L122.4 8.388V27H119.124V2.088H122.652L131.868 22.68L141.084 2.088H144.576ZM168.131 16.38C168.131 17.004 168.095 17.664 168.023 18.36H152.255C152.375 20.304 153.035 21.828 154.235 22.932C155.459 24.012 156.935 24.552 158.663 24.552C160.079 24.552 161.255 24.228 162.191 23.58C163.151 22.908 163.823 22.02 164.207 20.916H167.735C167.207 22.812 166.151 24.36 164.567 25.56C162.983 26.736 161.015 27.324 158.663 27.324C156.791 27.324 155.111 26.904 153.623 26.064C152.159 25.224 151.007 24.036 150.167 22.5C149.327 20.94 148.907 19.14 148.907 17.1C148.907 15.06 149.315 13.272 150.131 11.736C150.947 10.2 152.087 9.024 153.551 8.208C155.039 7.368 156.743 6.948 158.663 6.948C160.535 6.948 162.191 7.356 163.631 8.172C165.071 8.988 166.175 10.116 166.943 11.556C167.735 12.972 168.131 14.58 168.131 16.38ZM164.747 15.696C164.747 14.448 164.471 13.38 163.919 12.492C163.367 11.58 162.611 10.896 161.651 10.44C160.715 9.96 159.671 9.72 158.519 9.72C156.863 9.72 155.447 10.248 154.271 11.304C153.119 12.36 152.459 13.824 152.291 15.696H164.747Z" fill="#021718"/>
</svg>
