<svg width="260" height="68" viewBox="0 0 260 68" fill="none" xmlns="http://www.w3.org/2000/svg">
<rect width="260" height="68" rx="10" fill="#01847F"/>
<path d="M59.888 33.624C59.888 31.992 60.264 30.528 61.016 29.232C61.784 27.936 62.816 26.928 64.112 26.208C65.424 25.472 66.856 25.104 68.408 25.104C70.184 25.104 71.76 25.544 73.136 26.424C74.528 27.288 75.536 28.52 76.16 30.12H72.872C72.44 29.24 71.84 28.584 71.072 28.152C70.304 27.72 69.416 27.504 68.408 27.504C67.304 27.504 66.32 27.752 65.456 28.248C64.592 28.744 63.912 29.456 63.416 30.384C62.936 31.312 62.696 32.392 62.696 33.624C62.696 34.856 62.936 35.936 63.416 36.864C63.912 37.792 64.592 38.512 65.456 39.024C66.32 39.52 67.304 39.768 68.408 39.768C69.416 39.768 70.304 39.552 71.072 39.12C71.84 38.688 72.44 38.032 72.872 37.152H76.16C75.536 38.752 74.528 39.984 73.136 40.848C71.76 41.712 70.184 42.144 68.408 42.144C66.84 42.144 65.408 41.784 64.112 41.064C62.816 40.328 61.784 39.312 61.016 38.016C60.264 36.72 59.888 35.256 59.888 33.624ZM85.0985 42.216C83.8505 42.216 82.7225 41.936 81.7145 41.376C80.7065 40.8 79.9145 40 79.3385 38.976C78.7625 37.936 78.4745 36.736 78.4745 35.376C78.4745 34.032 78.7705 32.84 79.3625 31.8C79.9545 30.76 80.7625 29.96 81.7865 29.4C82.8105 28.84 83.9545 28.56 85.2185 28.56C86.4825 28.56 87.6265 28.84 88.6505 29.4C89.6745 29.96 90.4825 30.76 91.0745 31.8C91.6665 32.84 91.9625 34.032 91.9625 35.376C91.9625 36.72 91.6585 37.912 91.0505 38.952C90.4425 39.992 89.6105 40.8 88.5545 41.376C87.5145 41.936 86.3625 42.216 85.0985 42.216ZM85.0985 39.84C85.8025 39.84 86.4585 39.672 87.0665 39.336C87.6905 39 88.1945 38.496 88.5785 37.824C88.9625 37.152 89.1545 36.336 89.1545 35.376C89.1545 34.416 88.9705 33.608 88.6025 32.952C88.2345 32.28 87.7465 31.776 87.1385 31.44C86.5305 31.104 85.8745 30.936 85.1705 30.936C84.4665 30.936 83.8105 31.104 83.2025 31.44C82.6105 31.776 82.1385 32.28 81.7865 32.952C81.4345 33.608 81.2585 34.416 81.2585 35.376C81.2585 36.8 81.6185 37.904 82.3385 38.688C83.0745 39.456 83.9945 39.84 85.0985 39.84ZM101.339 28.56C102.379 28.56 103.307 28.776 104.123 29.208C104.955 29.64 105.603 30.28 106.067 31.128C106.531 31.976 106.763 33 106.763 34.2V42H104.051V34.608C104.051 33.424 103.755 32.52 103.163 31.896C102.571 31.256 101.763 30.936 100.739 30.936C99.7152 30.936 98.8992 31.256 98.2912 31.896C97.6992 32.52 97.4032 33.424 97.4032 34.608V42H94.6672V28.776H97.4032V30.288C97.8512 29.744 98.4192 29.32 99.1072 29.016C99.8112 28.712 100.555 28.56 101.339 28.56ZM113.445 31.008V38.328C113.445 38.824 113.557 39.184 113.781 39.408C114.021 39.616 114.421 39.72 114.981 39.72H116.661V42H114.501C113.269 42 112.325 41.712 111.669 41.136C111.013 40.56 110.685 39.624 110.685 38.328V31.008H109.125V28.776H110.685V25.488H113.445V28.776H116.661V31.008H113.445ZM118.271 35.328C118.271 34 118.543 32.824 119.087 31.8C119.647 30.776 120.399 29.984 121.343 29.424C122.303 28.848 123.359 28.56 124.511 28.56C125.551 28.56 126.455 28.768 127.223 29.184C128.007 29.584 128.631 30.088 129.095 30.696V28.776H131.855V42H129.095V40.032C128.631 40.656 127.999 41.176 127.199 41.592C126.399 42.008 125.487 42.216 124.463 42.216C123.327 42.216 122.287 41.928 121.343 41.352C120.399 40.76 119.647 39.944 119.087 38.904C118.543 37.848 118.271 36.656 118.271 35.328ZM129.095 35.376C129.095 34.464 128.903 33.672 128.519 33C128.151 32.328 127.663 31.816 127.055 31.464C126.447 31.112 125.791 30.936 125.087 30.936C124.383 30.936 123.727 31.112 123.119 31.464C122.511 31.8 122.015 32.304 121.631 32.976C121.263 33.632 121.079 34.416 121.079 35.328C121.079 36.24 121.263 37.04 121.631 37.728C122.015 38.416 122.511 38.944 123.119 39.312C123.743 39.664 124.399 39.84 125.087 39.84C125.791 39.84 126.447 39.664 127.055 39.312C127.663 38.96 128.151 38.448 128.519 37.776C128.903 37.088 129.095 36.288 129.095 35.376ZM134.536 35.376C134.536 34.016 134.808 32.824 135.352 31.8C135.912 30.76 136.68 29.96 137.656 29.4C138.632 28.84 139.752 28.56 141.016 28.56C142.616 28.56 143.936 28.944 144.976 29.712C146.032 30.464 146.744 31.544 147.112 32.952H144.16C143.92 32.296 143.536 31.784 143.008 31.416C142.48 31.048 141.816 30.864 141.016 30.864C139.896 30.864 139 31.264 138.328 32.064C137.672 32.848 137.344 33.952 137.344 35.376C137.344 36.8 137.672 37.912 138.328 38.712C139 39.512 139.896 39.912 141.016 39.912C142.6 39.912 143.648 39.216 144.16 37.824H147.112C146.728 39.168 146.008 40.24 144.952 41.04C143.896 41.824 142.584 42.216 141.016 42.216C139.752 42.216 138.632 41.936 137.656 41.376C136.68 40.8 135.912 40 135.352 38.976C134.808 37.936 134.536 36.736 134.536 35.376ZM153.031 31.008V38.328C153.031 38.824 153.143 39.184 153.367 39.408C153.607 39.616 154.007 39.72 154.567 39.72H156.247V42H154.087C152.855 42 151.911 41.712 151.255 41.136C150.599 40.56 150.271 39.624 150.271 38.328V31.008H148.711V28.776H150.271V25.488H153.031V28.776H156.247V31.008H153.031ZM182.571 25.32V42H179.835V30.576L174.747 42H172.851L167.739 30.576V42H165.003V25.32H167.955L173.811 38.4L179.643 25.32H182.571ZM198.287 35.064C198.287 35.56 198.255 36.008 198.191 36.408H188.087C188.167 37.464 188.559 38.312 189.263 38.952C189.967 39.592 190.831 39.912 191.855 39.912C193.327 39.912 194.367 39.296 194.975 38.064H197.927C197.527 39.28 196.799 40.28 195.743 41.064C194.703 41.832 193.407 42.216 191.855 42.216C190.591 42.216 189.455 41.936 188.447 41.376C187.455 40.8 186.671 40 186.095 38.976C185.535 37.936 185.255 36.736 185.255 35.376C185.255 34.016 185.527 32.824 186.071 31.8C186.631 30.76 187.407 29.96 188.399 29.4C189.407 28.84 190.559 28.56 191.855 28.56C193.103 28.56 194.215 28.832 195.191 29.376C196.167 29.92 196.927 30.688 197.471 31.68C198.015 32.656 198.287 33.784 198.287 35.064ZM195.431 34.2C195.415 33.192 195.055 32.384 194.351 31.776C193.647 31.168 192.775 30.864 191.735 30.864C190.791 30.864 189.983 31.168 189.311 31.776C188.639 32.368 188.239 33.176 188.111 34.2H195.431Z" fill="#FFFFFA"/>
</svg>
