<svg width="145" height="27" viewBox="0 0 145 27" fill="none" xmlns="http://www.w3.org/2000/svg">
<path d="M0.548 13.436C0.548 10.988 1.1 8.792 2.204 6.848C3.308 4.88 4.808 3.344 6.704 2.24C8.624 1.136 10.748 0.583999 13.076 0.583999C15.812 0.583999 18.2 1.244 20.24 2.564C22.28 3.884 23.768 5.756 24.704 8.18H20.78C20.084 6.668 19.076 5.504 17.756 4.688C16.46 3.872 14.9 3.464 13.076 3.464C11.324 3.464 9.752 3.872 8.36 4.688C6.968 5.504 5.876 6.668 5.084 8.18C4.292 9.668 3.896 11.42 3.896 13.436C3.896 15.428 4.292 17.18 5.084 18.692C5.876 20.18 6.968 21.332 8.36 22.148C9.752 22.964 11.324 23.372 13.076 23.372C14.9 23.372 16.46 22.976 17.756 22.184C19.076 21.368 20.084 20.204 20.78 18.692H24.704C23.768 21.092 22.28 22.952 20.24 24.272C18.2 25.568 15.812 26.216 13.076 26.216C10.748 26.216 8.624 25.676 6.704 24.596C4.808 23.492 3.308 21.968 2.204 20.024C1.1 18.08 0.548 15.884 0.548 13.436ZM38.1846 26.324C36.3366 26.324 34.6566 25.904 33.1446 25.064C31.6566 24.224 30.4806 23.036 29.6166 21.5C28.7766 19.94 28.3566 18.14 28.3566 16.1C28.3566 14.084 28.7886 12.308 29.6526 10.772C30.5406 9.212 31.7406 8.024 33.2526 7.208C34.7646 6.368 36.4566 5.948 38.3286 5.948C40.2006 5.948 41.8926 6.368 43.4046 7.208C44.9166 8.024 46.1046 9.2 46.9686 10.736C47.8566 12.272 48.3006 14.06 48.3006 16.1C48.3006 18.14 47.8446 19.94 46.9326 21.5C46.0446 23.036 44.8326 24.224 43.2966 25.064C41.7606 25.904 40.0566 26.324 38.1846 26.324ZM38.1846 23.444C39.3606 23.444 40.4646 23.168 41.4966 22.616C42.5286 22.064 43.3566 21.236 43.9806 20.132C44.6286 19.028 44.9526 17.684 44.9526 16.1C44.9526 14.516 44.6406 13.172 44.0166 12.068C43.3926 10.964 42.5766 10.148 41.5686 9.62C40.5606 9.068 39.4686 8.792 38.2926 8.792C37.0926 8.792 35.9886 9.068 34.9806 9.62C33.9966 10.148 33.2046 10.964 32.6046 12.068C32.0046 13.172 31.7046 14.516 31.7046 16.1C31.7046 17.708 31.9926 19.064 32.5686 20.168C33.1686 21.272 33.9606 22.1 34.9446 22.652C35.9286 23.18 37.0086 23.444 38.1846 23.444ZM62.2199 5.912C64.6199 5.912 66.5639 6.644 68.0519 8.108C69.5399 9.548 70.2839 11.636 70.2839 14.372V26H67.0439V14.84C67.0439 12.872 66.5519 11.372 65.5679 10.34C64.5839 9.284 63.2399 8.756 61.5359 8.756C59.8079 8.756 58.4279 9.296 57.3959 10.376C56.3879 11.456 55.8839 13.028 55.8839 15.092V26H52.6079V6.272H55.8839V9.08C56.5319 8.072 57.4079 7.292 58.5119 6.74C59.6399 6.188 60.8759 5.912 62.2199 5.912ZM79.6313 8.972V20.6C79.6313 21.56 79.8353 22.244 80.2433 22.652C80.6513 23.036 81.3593 23.228 82.3673 23.228H84.7793V26H81.8273C80.0033 26 78.6353 25.58 77.7233 24.74C76.8113 23.9 76.3553 22.52 76.3553 20.6V8.972H73.7993V6.272H76.3553V1.304H79.6313V6.272H84.7793V8.972H79.6313ZM87.5246 16.064C87.5246 14.048 87.9326 12.284 88.7486 10.772C89.5646 9.236 90.6806 8.048 92.0966 7.208C93.5366 6.368 95.1326 5.948 96.8846 5.948C98.6126 5.948 100.113 6.32 101.385 7.064C102.657 7.808 103.605 8.744 104.229 9.872V6.272H107.541V26H104.229V22.328C103.581 23.48 102.609 24.44 101.313 25.208C100.041 25.952 98.5526 26.324 96.8486 26.324C95.0966 26.324 93.5126 25.892 92.0966 25.028C90.6806 24.164 89.5646 22.952 88.7486 21.392C87.9326 19.832 87.5246 18.056 87.5246 16.064ZM104.229 16.1C104.229 14.612 103.929 13.316 103.329 12.212C102.729 11.108 101.913 10.268 100.881 9.692C99.8726 9.092 98.7566 8.792 97.5326 8.792C96.3086 8.792 95.1926 9.08 94.1846 9.656C93.1766 10.232 92.3726 11.072 91.7726 12.176C91.1726 13.28 90.8726 14.576 90.8726 16.064C90.8726 17.576 91.1726 18.896 91.7726 20.024C92.3726 21.128 93.1766 21.98 94.1846 22.58C95.1926 23.156 96.3086 23.444 97.5326 23.444C98.7566 23.444 99.8726 23.156 100.881 22.58C101.913 21.98 102.729 21.128 103.329 20.024C103.929 18.896 104.229 17.588 104.229 16.1ZM111.853 16.1C111.853 14.06 112.261 12.284 113.077 10.772C113.893 9.236 115.021 8.048 116.461 7.208C117.925 6.368 119.593 5.948 121.465 5.948C123.889 5.948 125.881 6.536 127.441 7.712C129.025 8.888 130.069 10.52 130.573 12.608H127.045C126.709 11.408 126.049 10.46 125.065 9.764C124.105 9.068 122.905 8.72 121.465 8.72C119.593 8.72 118.081 9.368 116.929 10.664C115.777 11.936 115.201 13.748 115.201 16.1C115.201 18.476 115.777 20.312 116.929 21.608C118.081 22.904 119.593 23.552 121.465 23.552C122.905 23.552 124.105 23.216 125.065 22.544C126.025 21.872 126.685 20.912 127.045 19.664H130.573C130.045 21.68 128.989 23.3 127.405 24.524C125.821 25.724 123.841 26.324 121.465 26.324C119.593 26.324 117.925 25.904 116.461 25.064C115.021 24.224 113.893 23.036 113.077 21.5C112.261 19.964 111.853 18.164 111.853 16.1ZM138.94 8.972V20.6C138.94 21.56 139.144 22.244 139.552 22.652C139.96 23.036 140.668 23.228 141.676 23.228H144.088V26H141.136C139.312 26 137.944 25.58 137.032 24.74C136.12 23.9 135.664 22.52 135.664 20.6V8.972H133.108V6.272H135.664V1.304H138.94V6.272H144.088V8.972H138.94Z" fill="#021718"/>
</svg>
