<svg width="404" height="30" viewBox="0 0 404 30" fill="none" xmlns="http://www.w3.org/2000/svg">
<path d="M18.368 6.32V23H15.632V11.576L10.544 23H8.648L3.536 11.576V23H0.8V6.32H3.752L9.608 19.4L15.44 6.32H18.368ZM33.8681 9.776L25.7561 29.216H22.9241L25.6121 22.784L20.4041 9.776H23.4521L27.1721 19.856L31.0361 9.776H33.8681ZM47.6632 23.168C46.5432 23.168 45.5352 22.976 44.6392 22.592C43.7432 22.192 43.0392 21.632 42.5272 20.912C42.0152 20.192 41.7592 19.352 41.7592 18.392H44.6872C44.7512 19.112 45.0312 19.704 45.5272 20.168C46.0392 20.632 46.7512 20.864 47.6632 20.864C48.6072 20.864 49.3432 20.64 49.8712 20.192C50.3992 19.728 50.6632 19.136 50.6632 18.416C50.6632 17.856 50.4952 17.4 50.1592 17.048C49.8392 16.696 49.4312 16.424 48.9352 16.232C48.4552 16.04 47.7832 15.832 46.9192 15.608C45.8312 15.32 44.9432 15.032 44.2552 14.744C43.5832 14.44 43.0072 13.976 42.5272 13.352C42.0472 12.728 41.8072 11.896 41.8072 10.856C41.8072 9.896 42.0472 9.056 42.5272 8.336C43.0072 7.616 43.6792 7.064 44.5432 6.68C45.4072 6.296 46.4072 6.104 47.5432 6.104C49.1592 6.104 50.4792 6.512 51.5032 7.328C52.5432 8.128 53.1192 9.232 53.2312 10.64H50.2072C50.1592 10.032 49.8712 9.512 49.3432 9.08C48.8152 8.648 48.1192 8.432 47.2552 8.432C46.4712 8.432 45.8312 8.632 45.3352 9.032C44.8392 9.432 44.5912 10.008 44.5912 10.76C44.5912 11.272 44.7432 11.696 45.0472 12.032C45.3672 12.352 45.7672 12.608 46.2472 12.8C46.7272 12.992 47.3832 13.2 48.2152 13.424C49.3192 13.728 50.2152 14.032 50.9032 14.336C51.6072 14.64 52.1992 15.112 52.6792 15.752C53.1752 16.376 53.4232 17.216 53.4232 18.272C53.4232 19.12 53.1912 19.92 52.7272 20.672C52.2792 21.424 51.6152 22.032 50.7352 22.496C49.8712 22.944 48.8472 23.168 47.6632 23.168ZM62.3876 23.216C61.1396 23.216 60.0116 22.936 59.0036 22.376C57.9956 21.8 57.2036 21 56.6276 19.976C56.0516 18.936 55.7636 17.736 55.7636 16.376C55.7636 15.032 56.0596 13.84 56.6516 12.8C57.2436 11.76 58.0516 10.96 59.0756 10.4C60.0996 9.84 61.2436 9.56 62.5076 9.56C63.7716 9.56 64.9156 9.84 65.9396 10.4C66.9636 10.96 67.7716 11.76 68.3636 12.8C68.9556 13.84 69.2516 15.032 69.2516 16.376C69.2516 17.72 68.9476 18.912 68.3396 19.952C67.7316 20.992 66.8996 21.8 65.8436 22.376C64.8036 22.936 63.6516 23.216 62.3876 23.216ZM62.3876 20.84C63.0916 20.84 63.7476 20.672 64.3556 20.336C64.9796 20 65.4836 19.496 65.8676 18.824C66.2516 18.152 66.4436 17.336 66.4436 16.376C66.4436 15.416 66.2596 14.608 65.8916 13.952C65.5236 13.28 65.0356 12.776 64.4276 12.44C63.8196 12.104 63.1636 11.936 62.4596 11.936C61.7556 11.936 61.0996 12.104 60.4916 12.44C59.8996 12.776 59.4276 13.28 59.0756 13.952C58.7236 14.608 58.5476 15.416 58.5476 16.376C58.5476 17.8 58.9076 18.904 59.6276 19.688C60.3636 20.456 61.2836 20.84 62.3876 20.84ZM71.0443 16.376C71.0443 15.016 71.3163 13.824 71.8603 12.8C72.4203 11.76 73.1883 10.96 74.1643 10.4C75.1403 9.84 76.2603 9.56 77.5243 9.56C79.1243 9.56 80.4443 9.944 81.4843 10.712C82.5403 11.464 83.2523 12.544 83.6203 13.952H80.6683C80.4283 13.296 80.0443 12.784 79.5163 12.416C78.9883 12.048 78.3243 11.864 77.5243 11.864C76.4043 11.864 75.5083 12.264 74.8363 13.064C74.1803 13.848 73.8523 14.952 73.8523 16.376C73.8523 17.8 74.1803 18.912 74.8363 19.712C75.5083 20.512 76.4043 20.912 77.5243 20.912C79.1083 20.912 80.1563 20.216 80.6683 18.824H83.6203C83.2363 20.168 82.5163 21.24 81.4603 22.04C80.4043 22.824 79.0923 23.216 77.5243 23.216C76.2603 23.216 75.1403 22.936 74.1643 22.376C73.1883 21.8 72.4203 21 71.8603 19.976C71.3163 18.936 71.0443 17.736 71.0443 16.376ZM87.7389 8.024C87.2429 8.024 86.8269 7.856 86.4909 7.52C86.1549 7.184 85.9869 6.768 85.9869 6.272C85.9869 5.776 86.1549 5.36 86.4909 5.024C86.8269 4.688 87.2429 4.52 87.7389 4.52C88.2189 4.52 88.6269 4.688 88.9629 5.024C89.2989 5.36 89.4669 5.776 89.4669 6.272C89.4669 6.768 89.2989 7.184 88.9629 7.52C88.6269 7.856 88.2189 8.024 87.7389 8.024ZM89.0829 9.776V23H86.3469V9.776H89.0829ZM91.763 16.328C91.763 15 92.035 13.824 92.579 12.8C93.139 11.776 93.891 10.984 94.835 10.424C95.795 9.848 96.851 9.56 98.003 9.56C99.043 9.56 99.947 9.768 100.715 10.184C101.499 10.584 102.123 11.088 102.587 11.696V9.776H105.347V23H102.587V21.032C102.123 21.656 101.491 22.176 100.691 22.592C99.891 23.008 98.979 23.216 97.955 23.216C96.819 23.216 95.779 22.928 94.835 22.352C93.891 21.76 93.139 20.944 92.579 19.904C92.035 18.848 91.763 17.656 91.763 16.328ZM102.587 16.376C102.587 15.464 102.395 14.672 102.011 14C101.643 13.328 101.155 12.816 100.547 12.464C99.939 12.112 99.283 11.936 98.579 11.936C97.875 11.936 97.219 12.112 96.611 12.464C96.003 12.8 95.507 13.304 95.123 13.976C94.755 14.632 94.571 15.416 94.571 16.328C94.571 17.24 94.755 18.04 95.123 18.728C95.507 19.416 96.003 19.944 96.611 20.312C97.235 20.664 97.891 20.84 98.579 20.84C99.283 20.84 99.939 20.664 100.547 20.312C101.155 19.96 101.643 19.448 102.011 18.776C102.395 18.088 102.587 17.288 102.587 16.376ZM111.677 5.24V23H108.941V5.24H111.677ZM139.071 6.32V23H136.335V11.576L131.247 23H129.351L124.239 11.576V23H121.503V6.32H124.455L130.311 19.4L136.143 6.32H139.071ZM154.787 16.064C154.787 16.56 154.755 17.008 154.691 17.408H144.587C144.667 18.464 145.059 19.312 145.763 19.952C146.467 20.592 147.331 20.912 148.355 20.912C149.827 20.912 150.867 20.296 151.475 19.064H154.427C154.027 20.28 153.299 21.28 152.243 22.064C151.203 22.832 149.907 23.216 148.355 23.216C147.091 23.216 145.955 22.936 144.947 22.376C143.955 21.8 143.171 21 142.595 19.976C142.035 18.936 141.755 17.736 141.755 16.376C141.755 15.016 142.027 13.824 142.571 12.8C143.131 11.76 143.907 10.96 144.899 10.4C145.907 9.84 147.059 9.56 148.355 9.56C149.603 9.56 150.715 9.832 151.691 10.376C152.667 10.92 153.427 11.688 153.971 12.68C154.515 13.656 154.787 14.784 154.787 16.064ZM151.931 15.2C151.915 14.192 151.555 13.384 150.851 12.776C150.147 12.168 149.275 11.864 148.235 11.864C147.291 11.864 146.483 12.168 145.811 12.776C145.139 13.368 144.739 14.176 144.611 15.2H151.931ZM156.568 16.328C156.568 15 156.84 13.824 157.384 12.8C157.944 11.776 158.696 10.984 159.64 10.424C160.6 9.848 161.664 9.56 162.832 9.56C163.696 9.56 164.544 9.752 165.376 10.136C166.224 10.504 166.896 11 167.392 11.624V5.24H170.152V23H167.392V21.008C166.944 21.648 166.32 22.176 165.52 22.592C164.736 23.008 163.832 23.216 162.808 23.216C161.656 23.216 160.6 22.928 159.64 22.352C158.696 21.76 157.944 20.944 157.384 19.904C156.84 18.848 156.568 17.656 156.568 16.328ZM167.392 16.376C167.392 15.464 167.2 14.672 166.816 14C166.448 13.328 165.96 12.816 165.352 12.464C164.744 12.112 164.088 11.936 163.384 11.936C162.68 11.936 162.024 12.112 161.416 12.464C160.808 12.8 160.312 13.304 159.928 13.976C159.56 14.632 159.376 15.416 159.376 16.328C159.376 17.24 159.56 18.04 159.928 18.728C160.312 19.416 160.808 19.944 161.416 20.312C162.04 20.664 162.696 20.84 163.384 20.84C164.088 20.84 164.744 20.664 165.352 20.312C165.96 19.96 166.448 19.448 166.816 18.776C167.2 18.088 167.392 17.288 167.392 16.376ZM175.137 8.024C174.641 8.024 174.225 7.856 173.889 7.52C173.553 7.184 173.385 6.768 173.385 6.272C173.385 5.776 173.553 5.36 173.889 5.024C174.225 4.688 174.641 4.52 175.137 4.52C175.617 4.52 176.025 4.688 176.361 5.024C176.697 5.36 176.865 5.776 176.865 6.272C176.865 6.768 176.697 7.184 176.361 7.52C176.025 7.856 175.617 8.024 175.137 8.024ZM176.481 9.776V23H173.745V9.776H176.481ZM179.161 16.328C179.161 15 179.433 13.824 179.977 12.8C180.537 11.776 181.289 10.984 182.233 10.424C183.193 9.848 184.249 9.56 185.401 9.56C186.441 9.56 187.345 9.768 188.113 10.184C188.897 10.584 189.521 11.088 189.985 11.696V9.776H192.745V23H189.985V21.032C189.521 21.656 188.889 22.176 188.089 22.592C187.289 23.008 186.377 23.216 185.353 23.216C184.217 23.216 183.177 22.928 182.233 22.352C181.289 21.76 180.537 20.944 179.977 19.904C179.433 18.848 179.161 17.656 179.161 16.328ZM189.985 16.376C189.985 15.464 189.793 14.672 189.409 14C189.041 13.328 188.553 12.816 187.945 12.464C187.337 12.112 186.681 11.936 185.977 11.936C185.273 11.936 184.617 12.112 184.009 12.464C183.401 12.8 182.905 13.304 182.521 13.976C182.153 14.632 181.969 15.416 181.969 16.328C181.969 17.24 182.153 18.04 182.521 18.728C182.905 19.416 183.401 19.944 184.009 20.312C184.633 20.664 185.289 20.84 185.977 20.84C186.681 20.84 187.337 20.664 187.945 20.312C188.553 19.96 189.041 19.448 189.409 18.776C189.793 18.088 189.985 17.288 189.985 16.376ZM205.219 0.343998L198.691 27.2H196.003L202.507 0.343998H205.219ZM213.99 14.624C213.99 12.992 214.366 11.528 215.118 10.232C215.886 8.936 216.918 7.928 218.214 7.208C219.526 6.472 220.958 6.104 222.51 6.104C224.286 6.104 225.862 6.544 227.238 7.424C228.63 8.288 229.638 9.52 230.262 11.12H226.974C226.542 10.24 225.942 9.584 225.174 9.152C224.406 8.72 223.518 8.504 222.51 8.504C221.406 8.504 220.422 8.752 219.558 9.248C218.694 9.744 218.014 10.456 217.518 11.384C217.038 12.312 216.798 13.392 216.798 14.624C216.798 15.856 217.038 16.936 217.518 17.864C218.014 18.792 218.694 19.512 219.558 20.024C220.422 20.52 221.406 20.768 222.51 20.768C223.518 20.768 224.406 20.552 225.174 20.12C225.942 19.688 226.542 19.032 226.974 18.152H230.262C229.638 19.752 228.63 20.984 227.238 21.848C225.862 22.712 224.286 23.144 222.51 23.144C220.942 23.144 219.51 22.784 218.214 22.064C216.918 21.328 215.886 20.312 215.118 19.016C214.366 17.72 213.99 16.256 213.99 14.624ZM239.2 23.216C237.952 23.216 236.824 22.936 235.816 22.376C234.808 21.8 234.016 21 233.44 19.976C232.864 18.936 232.576 17.736 232.576 16.376C232.576 15.032 232.872 13.84 233.464 12.8C234.056 11.76 234.864 10.96 235.888 10.4C236.912 9.84 238.056 9.56 239.32 9.56C240.584 9.56 241.728 9.84 242.752 10.4C243.776 10.96 244.584 11.76 245.176 12.8C245.768 13.84 246.064 15.032 246.064 16.376C246.064 17.72 245.76 18.912 245.152 19.952C244.544 20.992 243.712 21.8 242.656 22.376C241.616 22.936 240.464 23.216 239.2 23.216ZM239.2 20.84C239.904 20.84 240.56 20.672 241.168 20.336C241.792 20 242.296 19.496 242.68 18.824C243.064 18.152 243.256 17.336 243.256 16.376C243.256 15.416 243.072 14.608 242.704 13.952C242.336 13.28 241.848 12.776 241.24 12.44C240.632 12.104 239.976 11.936 239.272 11.936C238.568 11.936 237.912 12.104 237.304 12.44C236.712 12.776 236.24 13.28 235.888 13.952C235.536 14.608 235.36 15.416 235.36 16.376C235.36 17.8 235.72 18.904 236.44 19.688C237.176 20.456 238.096 20.84 239.2 20.84ZM255.441 9.56C256.481 9.56 257.409 9.776 258.225 10.208C259.057 10.64 259.705 11.28 260.169 12.128C260.633 12.976 260.865 14 260.865 15.2V23H258.153V15.608C258.153 14.424 257.857 13.52 257.265 12.896C256.673 12.256 255.865 11.936 254.841 11.936C253.817 11.936 253.001 12.256 252.393 12.896C251.801 13.52 251.505 14.424 251.505 15.608V23H248.769V9.776H251.505V11.288C251.953 10.744 252.521 10.32 253.209 10.016C253.913 9.712 254.657 9.56 255.441 9.56ZM267.547 12.008V19.328C267.547 19.824 267.659 20.184 267.883 20.408C268.123 20.616 268.523 20.72 269.083 20.72H270.763V23H268.603C267.371 23 266.427 22.712 265.771 22.136C265.115 21.56 264.787 20.624 264.787 19.328V12.008H263.227V9.776H264.787V6.488H267.547V9.776H270.763V12.008H267.547ZM272.372 16.328C272.372 15 272.644 13.824 273.188 12.8C273.748 11.776 274.5 10.984 275.444 10.424C276.404 9.848 277.46 9.56 278.612 9.56C279.652 9.56 280.556 9.768 281.324 10.184C282.108 10.584 282.732 11.088 283.196 11.696V9.776H285.956V23H283.196V21.032C282.732 21.656 282.1 22.176 281.3 22.592C280.5 23.008 279.588 23.216 278.564 23.216C277.428 23.216 276.388 22.928 275.444 22.352C274.5 21.76 273.748 20.944 273.188 19.904C272.644 18.848 272.372 17.656 272.372 16.328ZM283.196 16.376C283.196 15.464 283.004 14.672 282.62 14C282.252 13.328 281.764 12.816 281.156 12.464C280.548 12.112 279.892 11.936 279.188 11.936C278.484 11.936 277.828 12.112 277.22 12.464C276.612 12.8 276.116 13.304 275.732 13.976C275.364 14.632 275.18 15.416 275.18 16.328C275.18 17.24 275.364 18.04 275.732 18.728C276.116 19.416 276.612 19.944 277.22 20.312C277.844 20.664 278.5 20.84 279.188 20.84C279.892 20.84 280.548 20.664 281.156 20.312C281.764 19.96 282.252 19.448 282.62 18.776C283.004 18.088 283.196 17.288 283.196 16.376ZM288.638 16.376C288.638 15.016 288.91 13.824 289.454 12.8C290.014 11.76 290.782 10.96 291.758 10.4C292.734 9.84 293.854 9.56 295.118 9.56C296.718 9.56 298.038 9.944 299.078 10.712C300.134 11.464 300.846 12.544 301.214 13.952H298.262C298.022 13.296 297.638 12.784 297.11 12.416C296.582 12.048 295.918 11.864 295.118 11.864C293.998 11.864 293.102 12.264 292.43 13.064C291.774 13.848 291.446 14.952 291.446 16.376C291.446 17.8 291.774 18.912 292.43 19.712C293.102 20.512 293.998 20.912 295.118 20.912C296.702 20.912 297.75 20.216 298.262 18.824H301.214C300.83 20.168 300.11 21.24 299.054 22.04C297.998 22.824 296.686 23.216 295.118 23.216C293.854 23.216 292.734 22.936 291.758 22.376C290.782 21.8 290.014 21 289.454 19.976C288.91 18.936 288.638 17.736 288.638 16.376ZM307.133 12.008V19.328C307.133 19.824 307.245 20.184 307.469 20.408C307.709 20.616 308.109 20.72 308.669 20.72H310.349V23H308.189C306.957 23 306.013 22.712 305.357 22.136C304.701 21.56 304.373 20.624 304.373 19.328V12.008H302.813V9.776H304.373V6.488H307.133V9.776H310.349V12.008H307.133ZM330.769 11.288C330.769 12.136 330.569 12.936 330.169 13.688C329.769 14.44 329.129 15.056 328.249 15.536C327.369 16 326.241 16.232 324.865 16.232H321.841V23H319.105V6.32H324.865C326.145 6.32 327.225 6.544 328.105 6.992C329.001 7.424 329.665 8.016 330.097 8.768C330.545 9.52 330.769 10.36 330.769 11.288ZM324.865 14C325.905 14 326.681 13.768 327.193 13.304C327.705 12.824 327.961 12.152 327.961 11.288C327.961 9.464 326.929 8.552 324.865 8.552H321.841V14H324.865ZM345.498 16.064C345.498 16.56 345.466 17.008 345.402 17.408H335.298C335.378 18.464 335.77 19.312 336.474 19.952C337.178 20.592 338.042 20.912 339.066 20.912C340.538 20.912 341.578 20.296 342.186 19.064H345.138C344.738 20.28 344.01 21.28 342.954 22.064C341.914 22.832 340.618 23.216 339.066 23.216C337.802 23.216 336.666 22.936 335.658 22.376C334.666 21.8 333.882 21 333.306 19.976C332.746 18.936 332.466 17.736 332.466 16.376C332.466 15.016 332.738 13.824 333.282 12.8C333.842 11.76 334.618 10.96 335.61 10.4C336.618 9.84 337.77 9.56 339.066 9.56C340.314 9.56 341.426 9.832 342.402 10.376C343.378 10.92 344.138 11.688 344.682 12.68C345.226 13.656 345.498 14.784 345.498 16.064ZM342.642 15.2C342.626 14.192 342.266 13.384 341.562 12.776C340.858 12.168 339.986 11.864 338.946 11.864C338.002 11.864 337.194 12.168 336.522 12.776C335.85 13.368 335.45 14.176 335.322 15.2H342.642ZM350.927 11.696C351.327 11.024 351.855 10.504 352.511 10.136C353.183 9.752 353.975 9.56 354.887 9.56V12.392H354.191C353.119 12.392 352.303 12.664 351.743 13.208C351.199 13.752 350.927 14.696 350.927 16.04V23H348.191V9.776H350.927V11.696ZM362.202 23.216C361.162 23.216 360.226 23.032 359.394 22.664C358.578 22.28 357.93 21.768 357.45 21.128C356.97 20.472 356.714 19.744 356.682 18.944H359.514C359.562 19.504 359.826 19.976 360.306 20.36C360.802 20.728 361.418 20.912 362.154 20.912C362.922 20.912 363.514 20.768 363.93 20.48C364.362 20.176 364.578 19.792 364.578 19.328C364.578 18.832 364.338 18.464 363.858 18.224C363.394 17.984 362.65 17.72 361.626 17.432C360.634 17.16 359.826 16.896 359.202 16.64C358.578 16.384 358.034 15.992 357.57 15.464C357.122 14.936 356.898 14.24 356.898 13.376C356.898 12.672 357.106 12.032 357.522 11.456C357.938 10.864 358.53 10.4 359.298 10.064C360.082 9.728 360.978 9.56 361.986 9.56C363.49 9.56 364.698 9.944 365.61 10.712C366.538 11.464 367.034 12.496 367.098 13.808H364.362C364.314 13.216 364.074 12.744 363.642 12.392C363.21 12.04 362.626 11.864 361.89 11.864C361.17 11.864 360.618 12 360.234 12.272C359.85 12.544 359.658 12.904 359.658 13.352C359.658 13.704 359.786 14 360.042 14.24C360.298 14.48 360.61 14.672 360.978 14.816C361.346 14.944 361.89 15.112 362.61 15.32C363.57 15.576 364.354 15.84 364.962 16.112C365.586 16.368 366.122 16.752 366.57 17.264C367.018 17.776 367.25 18.456 367.266 19.304C367.266 20.056 367.058 20.728 366.642 21.32C366.226 21.912 365.634 22.376 364.866 22.712C364.114 23.048 363.226 23.216 362.202 23.216ZM375.958 23.216C374.71 23.216 373.582 22.936 372.574 22.376C371.566 21.8 370.774 21 370.198 19.976C369.622 18.936 369.334 17.736 369.334 16.376C369.334 15.032 369.63 13.84 370.222 12.8C370.814 11.76 371.622 10.96 372.646 10.4C373.67 9.84 374.814 9.56 376.078 9.56C377.342 9.56 378.486 9.84 379.51 10.4C380.534 10.96 381.342 11.76 381.934 12.8C382.526 13.84 382.822 15.032 382.822 16.376C382.822 17.72 382.518 18.912 381.91 19.952C381.302 20.992 380.47 21.8 379.414 22.376C378.374 22.936 377.222 23.216 375.958 23.216ZM375.958 20.84C376.662 20.84 377.318 20.672 377.926 20.336C378.55 20 379.054 19.496 379.438 18.824C379.822 18.152 380.014 17.336 380.014 16.376C380.014 15.416 379.83 14.608 379.462 13.952C379.094 13.28 378.606 12.776 377.998 12.44C377.39 12.104 376.734 11.936 376.03 11.936C375.326 11.936 374.67 12.104 374.062 12.44C373.47 12.776 372.998 13.28 372.646 13.952C372.294 14.608 372.118 15.416 372.118 16.376C372.118 17.8 372.478 18.904 373.198 19.688C373.934 20.456 374.854 20.84 375.958 20.84ZM392.199 9.56C393.239 9.56 394.167 9.776 394.983 10.208C395.815 10.64 396.463 11.28 396.927 12.128C397.391 12.976 397.623 14 397.623 15.2V23H394.911V15.608C394.911 14.424 394.615 13.52 394.023 12.896C393.431 12.256 392.623 11.936 391.599 11.936C390.575 11.936 389.759 12.256 389.151 12.896C388.559 13.52 388.263 14.424 388.263 15.608V23H385.527V9.776H388.263V11.288C388.711 10.744 389.279 10.32 389.967 10.016C390.671 9.712 391.415 9.56 392.199 9.56ZM402.217 23.168C401.721 23.168 401.305 23 400.969 22.664C400.633 22.328 400.465 21.912 400.465 21.416C400.465 20.92 400.633 20.504 400.969 20.168C401.305 19.832 401.721 19.664 402.217 19.664C402.697 19.664 403.105 19.832 403.441 20.168C403.777 20.504 403.945 20.92 403.945 21.416C403.945 21.912 403.777 22.328 403.441 22.664C403.105 23 402.697 23.168 402.217 23.168ZM402.217 13.088C401.721 13.088 401.305 12.92 400.969 12.584C400.633 12.248 400.465 11.832 400.465 11.336C400.465 10.84 400.633 10.424 400.969 10.088C401.305 9.752 401.721 9.584 402.217 9.584C402.697 9.584 403.105 9.752 403.441 10.088C403.777 10.424 403.945 10.84 403.945 11.336C403.945 11.832 403.777 12.248 403.441 12.584C403.105 12.92 402.697 13.088 402.217 13.088Z" fill="black"/>
</svg>
