<svg width="241" height="28" viewBox="0 0 241 28" fill="none" xmlns="http://www.w3.org/2000/svg">
<path d="M8.584 1.908C11.32 1.908 13.684 2.424 15.676 3.456C17.692 4.464 19.228 5.916 20.284 7.812C21.364 9.708 21.904 11.94 21.904 14.508C21.904 17.076 21.364 19.308 20.284 21.204C19.228 23.076 17.692 24.516 15.676 25.524C13.684 26.508 11.32 27 8.584 27H0.772V1.908H8.584ZM8.584 24.3C11.824 24.3 14.296 23.448 16 21.744C17.704 20.016 18.556 17.604 18.556 14.508C18.556 11.388 17.692 8.952 15.964 7.2C14.26 5.448 11.8 4.572 8.584 4.572H4.048V24.3H8.584ZM34.8291 27.324C32.9811 27.324 31.3011 26.904 29.7891 26.064C28.3011 25.224 27.1251 24.036 26.2611 22.5C25.4211 20.94 25.0011 19.14 25.0011 17.1C25.0011 15.084 25.4331 13.308 26.2971 11.772C27.1851 10.212 28.3851 9.024 29.8971 8.208C31.4091 7.368 33.1011 6.948 34.9731 6.948C36.8451 6.948 38.5371 7.368 40.0491 8.208C41.5611 9.024 42.7491 10.2 43.6131 11.736C44.5011 13.272 44.9451 15.06 44.9451 17.1C44.9451 19.14 44.4891 20.94 43.5771 22.5C42.6891 24.036 41.4771 25.224 39.9411 26.064C38.4051 26.904 36.7011 27.324 34.8291 27.324ZM34.8291 24.444C36.0051 24.444 37.1091 24.168 38.1411 23.616C39.1731 23.064 40.0011 22.236 40.6251 21.132C41.2731 20.028 41.5971 18.684 41.5971 17.1C41.5971 15.516 41.2851 14.172 40.6611 13.068C40.0371 11.964 39.2211 11.148 38.2131 10.62C37.2051 10.068 36.1131 9.792 34.9371 9.792C33.7371 9.792 32.6331 10.068 31.6251 10.62C30.6411 11.148 29.8491 11.964 29.2491 13.068C28.6491 14.172 28.3491 15.516 28.3491 17.1C28.3491 18.708 28.6371 20.064 29.2131 21.168C29.8131 22.272 30.6051 23.1 31.5891 23.652C32.5731 24.18 33.6531 24.444 34.8291 24.444ZM75.5325 7.272L69.3765 27H65.9925L61.2405 11.34L56.4885 27H53.1045L46.9125 7.272H50.2605L54.7965 23.832L59.6925 7.272H63.0405L67.8285 23.868L72.2925 7.272H75.5325ZM88.3957 6.912C90.7957 6.912 92.7397 7.644 94.2277 9.108C95.7157 10.548 96.4597 12.636 96.4597 15.372V27H93.2197V15.84C93.2197 13.872 92.7277 12.372 91.7437 11.34C90.7597 10.284 89.4157 9.756 87.7117 9.756C85.9837 9.756 84.6037 10.296 83.5717 11.376C82.5637 12.456 82.0597 14.028 82.0597 16.092V27H78.7837V7.272H82.0597V10.08C82.7077 9.072 83.5837 8.292 84.6877 7.74C85.8157 7.188 87.0517 6.912 88.3957 6.912ZM105.087 0.36V27H101.811V0.36H105.087ZM119.274 27.324C117.426 27.324 115.746 26.904 114.234 26.064C112.746 25.224 111.57 24.036 110.706 22.5C109.866 20.94 109.446 19.14 109.446 17.1C109.446 15.084 109.878 13.308 110.742 11.772C111.63 10.212 112.83 9.024 114.342 8.208C115.854 7.368 117.546 6.948 119.418 6.948C121.29 6.948 122.982 7.368 124.494 8.208C126.006 9.024 127.194 10.2 128.058 11.736C128.946 13.272 129.39 15.06 129.39 17.1C129.39 19.14 128.934 20.94 128.022 22.5C127.134 24.036 125.922 25.224 124.386 26.064C122.85 26.904 121.146 27.324 119.274 27.324ZM119.274 24.444C120.45 24.444 121.554 24.168 122.586 23.616C123.618 23.064 124.446 22.236 125.07 21.132C125.718 20.028 126.042 18.684 126.042 17.1C126.042 15.516 125.73 14.172 125.106 13.068C124.482 11.964 123.666 11.148 122.658 10.62C121.65 10.068 120.558 9.792 119.382 9.792C118.182 9.792 117.078 10.068 116.07 10.62C115.086 11.148 114.294 11.964 113.694 13.068C113.094 14.172 112.794 15.516 112.794 17.1C112.794 18.708 113.082 20.064 113.658 21.168C114.258 22.272 115.05 23.1 116.034 23.652C117.018 24.18 118.098 24.444 119.274 24.444ZM132.474 17.064C132.474 15.048 132.882 13.284 133.698 11.772C134.514 10.236 135.63 9.048 137.046 8.208C138.486 7.368 140.082 6.948 141.834 6.948C143.562 6.948 145.062 7.32 146.334 8.064C147.606 8.808 148.554 9.744 149.178 10.872V7.272H152.49V27H149.178V23.328C148.53 24.48 147.558 25.44 146.262 26.208C144.99 26.952 143.502 27.324 141.798 27.324C140.046 27.324 138.462 26.892 137.046 26.028C135.63 25.164 134.514 23.952 133.698 22.392C132.882 20.832 132.474 19.056 132.474 17.064ZM149.178 17.1C149.178 15.612 148.878 14.316 148.278 13.212C147.678 12.108 146.862 11.268 145.83 10.692C144.822 10.092 143.706 9.792 142.482 9.792C141.258 9.792 140.142 10.08 139.134 10.656C138.126 11.232 137.322 12.072 136.722 13.176C136.122 14.28 135.822 15.576 135.822 17.064C135.822 18.576 136.122 19.896 136.722 21.024C137.322 22.128 138.126 22.98 139.134 23.58C140.142 24.156 141.258 24.444 142.482 24.444C143.706 24.444 144.822 24.156 145.83 23.58C146.862 22.98 147.678 22.128 148.278 21.024C148.878 19.896 149.178 18.588 149.178 17.1ZM156.802 17.064C156.802 15.048 157.21 13.284 158.026 11.772C158.842 10.236 159.958 9.048 161.374 8.208C162.814 7.368 164.422 6.948 166.198 6.948C167.734 6.948 169.162 7.308 170.482 8.028C171.802 8.724 172.81 9.648 173.506 10.8V0.36H176.818V27H173.506V23.292C172.858 24.468 171.898 25.44 170.626 26.208C169.354 26.952 167.866 27.324 166.162 27.324C164.41 27.324 162.814 26.892 161.374 26.028C159.958 25.164 158.842 23.952 158.026 22.392C157.21 20.832 156.802 19.056 156.802 17.064ZM173.506 17.1C173.506 15.612 173.206 14.316 172.606 13.212C172.006 12.108 171.19 11.268 170.158 10.692C169.15 10.092 168.034 9.792 166.81 9.792C165.586 9.792 164.47 10.08 163.462 10.656C162.454 11.232 161.65 12.072 161.05 13.176C160.45 14.28 160.15 15.576 160.15 17.064C160.15 18.576 160.45 19.896 161.05 21.024C161.65 22.128 162.454 22.98 163.462 23.58C164.47 24.156 165.586 24.444 166.81 24.444C168.034 24.444 169.15 24.156 170.158 23.58C171.19 22.98 172.006 22.128 172.606 21.024C173.206 19.896 173.506 18.588 173.506 17.1ZM190.728 14.436C190.728 11.988 191.28 9.792 192.384 7.848C193.488 5.88 194.988 4.344 196.884 3.24C198.804 2.136 200.928 1.584 203.256 1.584C205.992 1.584 208.38 2.244 210.42 3.564C212.46 4.884 213.948 6.756 214.884 9.18H210.96C210.264 7.668 209.256 6.504 207.936 5.688C206.64 4.872 205.08 4.464 203.256 4.464C201.504 4.464 199.932 4.872 198.54 5.688C197.148 6.504 196.056 7.668 195.264 9.18C194.472 10.668 194.076 12.42 194.076 14.436C194.076 16.428 194.472 18.18 195.264 19.692C196.056 21.18 197.148 22.332 198.54 23.148C199.932 23.964 201.504 24.372 203.256 24.372C205.08 24.372 206.64 23.976 207.936 23.184C209.256 22.368 210.264 21.204 210.96 19.692H214.884C213.948 22.092 212.46 23.952 210.42 25.272C208.38 26.568 205.992 27.216 203.256 27.216C200.928 27.216 198.804 26.676 196.884 25.596C194.988 24.492 193.488 22.968 192.384 21.024C191.28 19.08 190.728 16.884 190.728 14.436ZM240.496 1.908L231.028 27H227.248L217.78 1.908H221.272L229.156 23.544L237.04 1.908H240.496Z" fill="#021718"/>
</svg>
