<svg width="104" height="27" viewBox="0 0 104 27" fill="none" xmlns="http://www.w3.org/2000/svg">
<path d="M20.104 0.907999V26H16.828V14.624H4.048V26H0.772V0.907999H4.048V11.924H16.828V0.907999H20.104ZM34.3018 26.324C32.4538 26.324 30.7738 25.904 29.2618 25.064C27.7738 24.224 26.5978 23.036 25.7338 21.5C24.8938 19.94 24.4738 18.14 24.4738 16.1C24.4738 14.084 24.9058 12.308 25.7698 10.772C26.6578 9.212 27.8578 8.024 29.3698 7.208C30.8818 6.368 32.5738 5.948 34.4458 5.948C36.3178 5.948 38.0098 6.368 39.5218 7.208C41.0338 8.024 42.2218 9.2 43.0858 10.736C43.9738 12.272 44.4178 14.06 44.4178 16.1C44.4178 18.14 43.9618 19.94 43.0498 21.5C42.1618 23.036 40.9498 24.224 39.4138 25.064C37.8778 25.904 36.1738 26.324 34.3018 26.324ZM34.3018 23.444C35.4778 23.444 36.5818 23.168 37.6138 22.616C38.6458 22.064 39.4738 21.236 40.0978 20.132C40.7458 19.028 41.0698 17.684 41.0698 16.1C41.0698 14.516 40.7578 13.172 40.1338 12.068C39.5098 10.964 38.6938 10.148 37.6858 9.62C36.6778 9.068 35.5858 8.792 34.4098 8.792C33.2098 8.792 32.1058 9.068 31.0978 9.62C30.1138 10.148 29.3218 10.964 28.7218 12.068C28.1218 13.172 27.8218 14.516 27.8218 16.1C27.8218 17.708 28.1098 19.064 28.6858 20.168C29.2858 21.272 30.0778 22.1 31.0618 22.652C32.0458 23.18 33.1258 23.444 34.3018 23.444ZM72.4491 5.912C73.9851 5.912 75.3531 6.236 76.5531 6.884C77.7531 7.508 78.7011 8.456 79.3971 9.728C80.0931 11 80.4411 12.548 80.4411 14.372V26H77.2011V14.84C77.2011 12.872 76.7091 11.372 75.7251 10.34C74.7651 9.284 73.4571 8.756 71.8011 8.756C70.0971 8.756 68.7411 9.308 67.7331 10.412C66.7251 11.492 66.2211 13.064 66.2211 15.128V26H62.9811V14.84C62.9811 12.872 62.4891 11.372 61.5051 10.34C60.5451 9.284 59.2371 8.756 57.5811 8.756C55.8771 8.756 54.5211 9.308 53.5131 10.412C52.5051 11.492 52.0011 13.064 52.0011 15.128V26H48.7251V6.272H52.0011V9.116C52.6491 8.084 53.5131 7.292 54.5931 6.74C55.6971 6.188 56.9091 5.912 58.2291 5.912C59.8851 5.912 61.3491 6.284 62.6211 7.028C63.8931 7.772 64.8411 8.864 65.4651 10.304C66.0171 8.912 66.9291 7.832 68.2011 7.064C69.4731 6.296 70.8891 5.912 72.4491 5.912ZM103.815 15.38C103.815 16.004 103.779 16.664 103.707 17.36H87.939C88.059 19.304 88.719 20.828 89.919 21.932C91.143 23.012 92.619 23.552 94.347 23.552C95.763 23.552 96.939 23.228 97.875 22.58C98.835 21.908 99.507 21.02 99.891 19.916H103.419C102.891 21.812 101.835 23.36 100.251 24.56C98.667 25.736 96.699 26.324 94.347 26.324C92.475 26.324 90.795 25.904 89.307 25.064C87.843 24.224 86.691 23.036 85.851 21.5C85.011 19.94 84.591 18.14 84.591 16.1C84.591 14.06 84.999 12.272 85.815 10.736C86.631 9.2 87.771 8.024 89.235 7.208C90.723 6.368 92.427 5.948 94.347 5.948C96.219 5.948 97.875 6.356 99.315 7.172C100.755 7.988 101.859 9.116 102.627 10.556C103.419 11.972 103.815 13.58 103.815 15.38ZM100.431 14.696C100.431 13.448 100.155 12.38 99.603 11.492C99.051 10.58 98.295 9.896 97.335 9.44C96.399 8.96 95.355 8.72 94.203 8.72C92.547 8.72 91.131 9.248 89.955 10.304C88.803 11.36 88.143 12.824 87.975 14.696H100.431Z" fill="#021718"/>
</svg>
