<svg width="122" height="47" viewBox="0 0 122 47" fill="none" xmlns="http://www.w3.org/2000/svg">
<path d="M32.472 0.879997V30.768C32.472 35.8453 31.0853 39.728 28.312 42.416C25.5813 45.104 21.8053 46.448 16.984 46.448C11.864 46.448 7.768 45.0187 4.696 42.16C1.66667 39.3013 0.152 35.184 0.152 29.808H12.568C12.6107 33.3493 13.912 35.12 16.472 35.12C18.776 35.12 19.928 33.6693 19.928 30.768V0.879997H32.472ZM80.343 0.879997V46H67.799V27.888H52.503V46H39.959V0.879997H52.503V17.84H67.799V0.879997H80.343ZM104.546 46.448C99.2975 46.448 94.9882 45.2107 91.6175 42.736C88.2468 40.2187 86.4335 36.6347 86.1775 31.984H99.5535C99.6815 33.5627 100.151 34.7147 100.962 35.44C101.772 36.1653 102.818 36.528 104.098 36.528C105.25 36.528 106.188 36.2507 106.914 35.696C107.682 35.0987 108.066 34.288 108.066 33.264C108.066 31.9413 107.447 30.9173 106.21 30.192C104.972 29.4667 102.967 28.656 100.194 27.76C97.2495 26.7787 94.8602 25.84 93.0255 24.944C91.2335 24.0053 89.6548 22.6613 88.2895 20.912C86.9668 19.12 86.3055 16.7947 86.3055 13.936C86.3055 11.0347 87.0308 8.56 88.4815 6.512C89.9322 4.42133 91.9375 2.84267 94.4975 1.776C97.0575 0.709332 99.9588 0.175999 103.202 0.175999C108.45 0.175999 112.631 1.41333 115.746 3.888C118.903 6.32 120.588 9.75467 120.802 14.192H107.17C107.127 12.8267 106.7 11.8027 105.89 11.12C105.122 10.4373 104.119 10.096 102.882 10.096C101.943 10.096 101.175 10.3733 100.578 10.928C99.9802 11.4827 99.6815 12.272 99.6815 13.296C99.6815 14.1493 100.002 14.896 100.642 15.536C101.324 16.1333 102.156 16.6667 103.138 17.136C104.119 17.5627 105.57 18.1173 107.49 18.8C110.348 19.7813 112.695 20.7627 114.53 21.744C116.407 22.6827 118.007 24.0267 119.33 25.776C120.695 27.4827 121.378 29.6587 121.378 32.304C121.378 34.992 120.695 37.4027 119.33 39.536C118.007 41.6693 116.066 43.3547 113.506 44.592C110.988 45.8293 108.002 46.448 104.546 46.448Z" fill="#021718"/>
</svg>
