<svg width="597" height="68" viewBox="0 0 597 68" fill="none" xmlns="http://www.w3.org/2000/svg">
<path d="M0.52 1.53H4.87L11.11 17.73L11.2 17.76L17.11 1.53H21.31V21H18.76V4.53H18.61L12.34 21H9.73L3.28 4.53H3.13V21H0.52V1.53ZM30.6498 21.3C29.2698 21.3 28.1998 21.17 27.4398 20.91C26.6998 20.65 26.1598 20.19 25.8198 19.53C25.4998 18.87 25.3398 17.92 25.3398 16.68C25.3398 15.58 25.4898 14.73 25.7898 14.13C26.1098 13.51 26.6398 13.07 27.3798 12.81C28.1398 12.55 29.2098 12.42 30.5898 12.42H34.9398V10.11C34.9398 9.57 34.8298 9.16 34.6098 8.88C34.4098 8.58 34.0598 8.37 33.5598 8.25C33.0798 8.13 32.3698 8.07 31.4298 8.07C29.9298 8.07 28.2698 8.19 26.4498 8.43V6.45C28.4298 6.27 30.2198 6.18 31.8198 6.18C33.4998 6.18 34.7398 6.31 35.5398 6.57C36.3398 6.81 36.8898 7.24 37.1898 7.86C37.4898 8.48 37.6398 9.44 37.6398 10.74V21H35.0298V19.62C34.8098 20.74 33.3498 21.3 30.6498 21.3ZM31.0998 19.53C32.0798 19.53 32.9098 19.46 33.5898 19.32C34.4898 19.14 34.9398 18.72 34.9398 18.06V14.1H30.7698C29.9098 14.1 29.2898 14.17 28.9098 14.31C28.5298 14.43 28.2798 14.67 28.1598 15.03C28.0398 15.39 27.9798 15.97 27.9798 16.77C27.9798 17.49 28.0498 18.05 28.1898 18.45C28.3298 18.83 28.5798 19.11 28.9398 19.29C29.2998 19.45 29.8398 19.53 30.5598 19.53H31.0998ZM42.3224 -1.43051e-06H45.0224V8.25C45.3024 6.87 46.8924 6.18 49.7924 6.18C51.6524 6.18 52.9524 6.52 53.6924 7.2C54.4524 7.86 54.8324 8.91 54.8324 10.35V21H52.1324V10.53C52.1324 10.15 52.1024 9.84 52.0424 9.6C51.9824 9.36 51.8624 9.12 51.6824 8.88C51.2824 8.38 50.3924 8.13 49.0124 8.13C47.9124 8.13 47.0724 8.21 46.4924 8.37C45.9324 8.51 45.5424 8.75 45.3224 9.09C45.1224 9.43 45.0224 9.91 45.0224 10.53V21H42.3224V-1.43051e-06ZM63.9897 21.3C62.6097 21.3 61.5397 21.17 60.7797 20.91C60.0397 20.65 59.4997 20.19 59.1597 19.53C58.8397 18.87 58.6797 17.92 58.6797 16.68C58.6797 15.58 58.8297 14.73 59.1297 14.13C59.4497 13.51 59.9797 13.07 60.7197 12.81C61.4797 12.55 62.5497 12.42 63.9297 12.42H68.2797V10.11C68.2797 9.57 68.1697 9.16 67.9497 8.88C67.7497 8.58 67.3997 8.37 66.8997 8.25C66.4197 8.13 65.7097 8.07 64.7697 8.07C63.2697 8.07 61.6097 8.19 59.7897 8.43V6.45C61.7697 6.27 63.5597 6.18 65.1597 6.18C66.8397 6.18 68.0797 6.31 68.8797 6.57C69.6797 6.81 70.2297 7.24 70.5297 7.86C70.8297 8.48 70.9797 9.44 70.9797 10.74V21H68.3697V19.62C68.1497 20.74 66.6897 21.3 63.9897 21.3ZM64.4397 19.53C65.4197 19.53 66.2497 19.46 66.9297 19.32C67.8297 19.14 68.2797 18.72 68.2797 18.06V14.1H64.1097C63.2497 14.1 62.6297 14.17 62.2497 14.31C61.8697 14.43 61.6197 14.67 61.4997 15.03C61.3797 15.39 61.3197 15.97 61.3197 16.77C61.3197 17.49 61.3897 18.05 61.5297 18.45C61.6697 18.83 61.9197 19.11 62.2797 19.29C62.6397 19.45 63.1797 19.53 63.8997 19.53H64.4397ZM80.1023 21.3C78.5623 21.3 76.9023 21.18 75.1223 20.94V18.87C77.4623 19.25 79.1423 19.44 80.1623 19.44C81.4423 19.44 82.3623 19.32 82.9223 19.08C83.4823 18.82 83.7623 18.35 83.7623 17.67V16.2C83.7623 15.58 83.5523 15.14 83.1323 14.88C82.7123 14.62 82.0323 14.49 81.0923 14.49H79.4423C77.9423 14.49 76.7923 14.18 75.9923 13.56C75.2123 12.94 74.8223 12.07 74.8223 10.95V9.6C74.8223 7.32 76.9823 6.18 81.3023 6.18C81.6223 6.18 83.0923 6.26 85.7123 6.42V8.37C83.9323 8.09 82.4223 7.95 81.1823 7.95C79.7623 7.95 78.7923 8.09 78.2723 8.37C77.7523 8.65 77.4923 9.12 77.4923 9.78V11.01C77.4923 11.99 78.3823 12.48 80.1623 12.48H81.8423C84.9023 12.48 86.4323 13.62 86.4323 15.9V17.16C86.4323 18.66 85.9123 19.73 84.8723 20.37C83.8323 20.99 82.2423 21.3 80.1023 21.3ZM90.1642 1.23H92.8642V4.05H90.1642V1.23ZM90.1642 6.48H92.8642V21H90.1642V6.48ZM101.987 21.3C100.447 21.3 98.787 21.18 97.007 20.94V18.87C99.347 19.25 101.027 19.44 102.047 19.44C103.327 19.44 104.247 19.32 104.807 19.08C105.367 18.82 105.647 18.35 105.647 17.67V16.2C105.647 15.58 105.437 15.14 105.017 14.88C104.597 14.62 103.917 14.49 102.977 14.49H101.327C99.827 14.49 98.677 14.18 97.877 13.56C97.097 12.94 96.707 12.07 96.707 10.95V9.6C96.707 7.32 98.867 6.18 103.187 6.18C103.507 6.18 104.977 6.26 107.597 6.42V8.37C105.817 8.09 104.307 7.95 103.067 7.95C101.647 7.95 100.677 8.09 100.157 8.37C99.637 8.65 99.377 9.12 99.377 9.78V11.01C99.377 11.99 100.267 12.48 102.047 12.48H103.727C106.787 12.48 108.317 13.62 108.317 15.9V17.16C108.317 18.66 107.797 19.73 106.757 20.37C105.717 20.99 104.127 21.3 101.987 21.3ZM110.069 6.48H113.039L116.579 18.42H116.759L120.179 6.48H123.209L126.749 18.42H126.929L130.349 6.48H133.109L128.339 21H125.129L121.619 9.27L118.169 21H114.959L110.069 6.48ZM140.279 21.3C138.899 21.3 137.829 21.17 137.069 20.91C136.329 20.65 135.789 20.19 135.449 19.53C135.129 18.87 134.969 17.92 134.969 16.68C134.969 15.58 135.119 14.73 135.419 14.13C135.739 13.51 136.269 13.07 137.009 12.81C137.769 12.55 138.839 12.42 140.219 12.42H144.569V10.11C144.569 9.57 144.459 9.16 144.239 8.88C144.039 8.58 143.689 8.37 143.189 8.25C142.709 8.13 141.999 8.07 141.059 8.07C139.559 8.07 137.899 8.19 136.079 8.43V6.45C138.059 6.27 139.849 6.18 141.449 6.18C143.129 6.18 144.369 6.31 145.169 6.57C145.969 6.81 146.519 7.24 146.819 7.86C147.119 8.48 147.269 9.44 147.269 10.74V21H144.659V19.62C144.439 20.74 142.979 21.3 140.279 21.3ZM140.729 19.53C141.709 19.53 142.539 19.46 143.219 19.32C144.119 19.14 144.569 18.72 144.569 18.06V14.1H140.399C139.539 14.1 138.919 14.17 138.539 14.31C138.159 14.43 137.909 14.67 137.789 15.03C137.669 15.39 137.609 15.97 137.609 16.77C137.609 17.49 137.679 18.05 137.819 18.45C137.959 18.83 138.209 19.11 138.569 19.29C138.929 19.45 139.469 19.53 140.189 19.53H140.729ZM159.045 1.53H166.005C167.665 1.53 168.985 1.7 169.965 2.04C170.865 2.36 171.465 2.76 171.765 3.24C172.085 3.72 172.245 4.38 172.245 5.22V7.83C172.245 8.61 172.025 9.22 171.585 9.66C171.145 10.08 170.475 10.39 169.575 10.59V10.71C170.635 10.89 171.485 11.26 172.125 11.82C172.785 12.36 173.115 13.04 173.115 13.86V17.13C173.115 18.55 172.585 19.55 171.525 20.13C170.465 20.71 168.695 21 166.215 21H159.045V1.53ZM166.095 10.05C167.315 10.05 168.185 9.87 168.705 9.51C169.245 9.13 169.515 8.54 169.515 7.74V5.46C169.515 4.72 169.245 4.2 168.705 3.9C168.165 3.6 167.265 3.45 166.005 3.45H161.955V10.05H166.095ZM166.215 18.99C167.675 18.99 168.705 18.84 169.305 18.54C169.905 18.24 170.205 17.73 170.205 17.01V14.07C170.205 13.55 170.095 13.14 169.875 12.84C169.675 12.52 169.355 12.29 168.915 12.15C168.475 12.03 168.085 11.96 167.745 11.94C167.405 11.9 166.895 11.88 166.215 11.88H161.955V18.99H166.215ZM181.734 21.3C180.354 21.3 179.284 21.17 178.524 20.91C177.784 20.65 177.244 20.19 176.904 19.53C176.584 18.87 176.424 17.92 176.424 16.68C176.424 15.58 176.574 14.73 176.874 14.13C177.194 13.51 177.724 13.07 178.464 12.81C179.224 12.55 180.294 12.42 181.674 12.42H186.024V10.11C186.024 9.57 185.914 9.16 185.694 8.88C185.494 8.58 185.144 8.37 184.644 8.25C184.164 8.13 183.454 8.07 182.514 8.07C181.014 8.07 179.354 8.19 177.534 8.43V6.45C179.514 6.27 181.304 6.18 182.904 6.18C184.584 6.18 185.824 6.31 186.624 6.57C187.424 6.81 187.974 7.24 188.274 7.86C188.574 8.48 188.724 9.44 188.724 10.74V21H186.114V19.62C185.894 20.74 184.434 21.3 181.734 21.3ZM182.184 19.53C183.164 19.53 183.994 19.46 184.674 19.32C185.574 19.14 186.024 18.72 186.024 18.06V14.1H181.854C180.994 14.1 180.374 14.17 179.994 14.31C179.614 14.43 179.364 14.67 179.244 15.03C179.124 15.39 179.064 15.97 179.064 16.77C179.064 17.49 179.134 18.05 179.274 18.45C179.414 18.83 179.664 19.11 180.024 19.29C180.384 19.45 180.924 19.53 181.644 19.53H182.184ZM193.406 6.48H195.956V8.85C195.956 8.39 196.156 7.96 196.556 7.56C196.956 7.14 197.466 6.81 198.086 6.57C198.706 6.31 199.316 6.18 199.916 6.18H201.236V8.49H199.736C198.456 8.49 197.526 8.66 196.946 9C196.386 9.32 196.106 9.91 196.106 10.77V21H193.406V6.48ZM208.964 21.3C207.104 21.3 205.794 20.97 205.034 20.31C204.294 19.63 203.924 18.57 203.924 17.13V6.48H206.624V16.98C206.624 17.36 206.654 17.67 206.714 17.91C206.794 18.13 206.924 18.36 207.104 18.6C207.464 19.12 208.344 19.38 209.744 19.38C211.224 19.38 212.264 19.24 212.864 18.96C213.444 18.68 213.734 18.17 213.734 17.43V6.48H216.434V21H213.734V19.23C213.474 20.61 211.884 21.3 208.964 21.3ZM227.855 17.52C227.855 16.96 227.945 16.44 228.125 15.96C228.325 15.46 228.575 15.04 228.875 14.7C229.115 14.42 229.475 14.12 229.955 13.8C230.455 13.46 230.925 13.18 231.365 12.96C231.745 12.76 232.245 12.53 232.865 12.27L236.105 10.83C237.385 10.27 238.025 9.4 238.025 8.22V5.55C238.025 4.63 237.745 4.02 237.185 3.72C236.625 3.4 235.645 3.24 234.245 3.24C232.865 3.24 230.965 3.45 228.545 3.87V1.77C230.565 1.39 232.655 1.2 234.815 1.2C236.975 1.2 238.535 1.53 239.495 2.19C240.455 2.83 240.935 3.91 240.935 5.43V8.61C240.935 9.33 240.815 9.93 240.575 10.41C240.335 10.87 239.945 11.29 239.405 11.67C238.885 12.03 238.115 12.44 237.095 12.9L232.595 14.97C231.275 15.57 230.615 16.45 230.615 17.61V18.9H240.935V21H227.855V17.52ZM251.768 21.3C250.888 21.3 250.168 21.27 249.608 21.21C249.068 21.15 248.488 21.03 247.868 20.85C247.208 20.67 246.678 20.41 246.278 20.07C245.898 19.71 245.578 19.21 245.318 18.57C245.058 17.97 244.928 17.22 244.928 16.32V6.48C244.928 5.58 245.058 4.79 245.318 4.11C245.578 3.43 245.918 2.89 246.338 2.49C246.718 2.15 247.218 1.88 247.838 1.68C248.478 1.46 249.118 1.32 249.758 1.26C250.478 1.22 251.148 1.2 251.768 1.2C252.648 1.2 253.358 1.23 253.898 1.29C254.458 1.35 255.048 1.47 255.668 1.65C256.328 1.85 256.858 2.13 257.258 2.49C257.678 2.85 258.018 3.36 258.278 4.02C258.538 4.68 258.668 5.49 258.668 6.45V16.32C258.668 17.14 258.538 17.87 258.278 18.51C258.018 19.15 257.678 19.65 257.258 20.01C256.858 20.35 256.348 20.63 255.728 20.85C255.108 21.05 254.478 21.17 253.838 21.21C253.278 21.27 252.588 21.3 251.768 21.3ZM251.828 19.53C252.888 19.53 253.708 19.46 254.288 19.32C254.868 19.16 255.288 18.86 255.548 18.42C255.808 17.98 255.938 17.33 255.938 16.47V6.27C255.938 5.33 255.798 4.63 255.518 4.17C255.258 3.69 254.838 3.37 254.258 3.21C253.698 3.05 252.878 2.97 251.798 2.97C250.698 2.97 249.858 3.05 249.278 3.21C248.718 3.37 248.308 3.69 248.048 4.17C247.788 4.63 247.658 5.33 247.658 6.27V16.47C247.658 17.33 247.788 17.98 248.048 18.42C248.328 18.86 248.758 19.16 249.338 19.32C249.918 19.46 250.748 19.53 251.828 19.53ZM262.66 17.52C262.66 16.96 262.75 16.44 262.93 15.96C263.13 15.46 263.38 15.04 263.68 14.7C263.92 14.42 264.28 14.12 264.76 13.8C265.26 13.46 265.73 13.18 266.17 12.96C266.55 12.76 267.05 12.53 267.67 12.27L270.91 10.83C272.19 10.27 272.83 9.4 272.83 8.22V5.55C272.83 4.63 272.55 4.02 271.99 3.72C271.43 3.4 270.45 3.24 269.05 3.24C267.67 3.24 265.77 3.45 263.35 3.87V1.77C265.37 1.39 267.46 1.2 269.62 1.2C271.78 1.2 273.34 1.53 274.3 2.19C275.26 2.83 275.74 3.91 275.74 5.43V8.61C275.74 9.33 275.62 9.93 275.38 10.41C275.14 10.87 274.75 11.29 274.21 11.67C273.69 12.03 272.92 12.44 271.9 12.9L267.4 14.97C266.08 15.57 265.42 16.45 265.42 17.61V18.9H275.74V21H262.66V17.52ZM287.472 4.23L281.562 8.1V5.64L287.502 1.53H290.082V21H287.472V4.23ZM309.749 21.3C308.309 21.3 307.179 21.16 306.359 20.88C305.539 20.58 304.939 20.1 304.559 19.44C304.199 18.78 304.019 17.86 304.019 16.68V10.29C304.019 8.83 304.469 7.78 305.369 7.14C306.289 6.5 307.799 6.18 309.899 6.18C311.159 6.18 312.239 6.34 313.139 6.66C314.059 6.98 314.529 7.44 314.549 8.04H314.609L314.549 4.35V-1.43051e-06H317.249V21H314.609V19.29C314.609 19.83 314.179 20.29 313.319 20.67C312.459 21.09 311.269 21.3 309.749 21.3ZM310.319 19.44C311.819 19.44 312.899 19.27 313.559 18.93C314.219 18.59 314.549 18.01 314.549 17.19V10.02C314.549 8.72 313.219 8.07 310.559 8.07C308.959 8.07 307.919 8.19 307.439 8.43C306.939 8.67 306.689 9.2 306.689 10.02V17.19C306.689 18.01 306.959 18.59 307.499 18.93C308.059 19.27 308.999 19.44 310.319 19.44ZM321.697 1.23H324.397V4.05H321.697V1.23ZM321.697 6.48H324.397V21H321.697V6.48ZM343.764 21.3C342.704 21.3 341.774 21.23 340.974 21.09C340.194 20.95 339.424 20.71 338.664 20.37C337.864 20.01 337.244 19.46 336.804 18.72C336.384 17.98 336.174 17.08 336.174 16.02V1.53H338.964V15.99C338.964 17.21 339.374 18.08 340.194 18.6C341.014 19.1 342.224 19.35 343.824 19.35C345.424 19.35 346.614 19.1 347.394 18.6C348.194 18.08 348.594 17.21 348.594 15.99V1.53H351.384V16.02C351.384 19.54 348.844 21.3 343.764 21.3ZM356.448 1.53H364.188C369.648 1.53 372.378 3.39 372.378 7.11V15.72C372.378 19.24 369.658 21 364.218 21H356.448V1.53ZM364.008 19.02C367.728 19.02 369.588 17.9 369.588 15.66V7.08C369.588 6.36 369.438 5.75 369.138 5.25C368.838 4.75 368.418 4.38 367.878 4.14C367.338 3.92 366.778 3.77 366.198 3.69C365.618 3.59 364.938 3.54 364.158 3.54H359.358V19.02H364.008ZM376.809 1.53H379.719V21H376.809V1.53ZM384.749 1.53H388.259L398.849 17.61V1.53H401.399V21H397.889L387.299 4.65V21H384.749V1.53ZM414.018 21.3C412.958 21.3 412.028 21.23 411.228 21.09C410.448 20.95 409.678 20.71 408.918 20.37C408.118 20.01 407.498 19.46 407.058 18.72C406.638 17.98 406.428 17.08 406.428 16.02V1.53H409.218V15.99C409.218 17.21 409.628 18.08 410.448 18.6C411.268 19.1 412.478 19.35 414.078 19.35C415.678 19.35 416.868 19.1 417.648 18.6C418.448 18.08 418.848 17.21 418.848 15.99V1.53H421.638V16.02C421.638 19.54 419.098 21.3 414.018 21.3ZM432.312 21.3C430.652 21.3 428.672 21.14 426.372 20.82V18.39C428.692 18.89 430.732 19.14 432.492 19.14C433.972 19.14 435.052 18.98 435.732 18.66C436.412 18.32 436.752 17.7 436.752 16.8V14.28C436.752 13.44 436.512 12.85 436.032 12.51C435.552 12.17 434.712 12 433.512 12H431.232C429.332 12 427.982 11.62 427.182 10.86C426.382 10.1 425.982 8.92 425.982 7.32V5.76C425.982 4.7 426.212 3.84 426.672 3.18C427.152 2.52 427.942 2.03 429.042 1.71C430.162 1.39 431.692 1.23 433.632 1.23C434.932 1.23 436.602 1.34 438.642 1.56V3.75C436.362 3.41 434.622 3.24 433.422 3.24C431.562 3.24 430.332 3.42 429.732 3.78C429.112 4.16 428.802 4.79 428.802 5.67V7.89C428.802 8.57 429.042 9.07 429.522 9.39C430.022 9.69 430.872 9.84 432.072 9.84H434.412C435.752 9.84 436.792 10 437.532 10.32C438.292 10.64 438.822 11.13 439.122 11.79C439.442 12.43 439.602 13.3 439.602 14.4V15.81C439.602 17.19 439.342 18.28 438.822 19.08C438.322 19.88 437.542 20.45 436.482 20.79C435.422 21.13 434.032 21.3 432.312 21.3ZM0.34 40H3.04V61H0.34V40ZM12.1928 61.3C10.8128 61.3 9.74281 61.17 8.98281 60.91C8.24281 60.65 7.70281 60.19 7.36281 59.53C7.04281 58.87 6.88281 57.92 6.88281 56.68C6.88281 55.58 7.03281 54.73 7.33281 54.13C7.65281 53.51 8.18281 53.07 8.92281 52.81C9.68281 52.55 10.7528 52.42 12.1328 52.42H16.4828V50.11C16.4828 49.57 16.3728 49.16 16.1528 48.88C15.9528 48.58 15.6028 48.37 15.1028 48.25C14.6228 48.13 13.9128 48.07 12.9728 48.07C11.4728 48.07 9.81281 48.19 7.99281 48.43V46.45C9.97281 46.27 11.7628 46.18 13.3628 46.18C15.0428 46.18 16.2828 46.31 17.0828 46.57C17.8828 46.81 18.4328 47.24 18.7328 47.86C19.0328 48.48 19.1828 49.44 19.1828 50.74V61H16.5728V59.62C16.3528 60.74 14.8928 61.3 12.1928 61.3ZM12.6428 59.53C13.6228 59.53 14.4528 59.46 15.1328 59.32C16.0328 59.14 16.4828 58.72 16.4828 58.06V54.1H12.3128C11.4528 54.1 10.8328 54.17 10.4528 54.31C10.0728 54.43 9.82281 54.67 9.70281 55.03C9.58281 55.39 9.52281 55.97 9.52281 56.77C9.52281 57.49 9.59281 58.05 9.73281 58.45C9.87281 58.83 10.1228 59.11 10.4828 59.29C10.8428 59.45 11.3828 59.53 12.1028 59.53H12.6428ZM29.3554 67.6C27.3754 67.6 25.7054 67.49 24.3454 67.27V65.35C26.7454 65.63 28.4954 65.77 29.5954 65.77C30.9754 65.77 31.9754 65.55 32.5954 65.11C33.2354 64.67 33.5554 63.94 33.5554 62.92V59.44C33.5154 60.08 33.0754 60.55 32.2354 60.85C31.4154 61.15 30.3754 61.3 29.1154 61.3C27.6154 61.3 26.4454 61.16 25.6054 60.88C24.7854 60.6 24.1954 60.14 23.8354 59.5C23.4954 58.86 23.3254 57.99 23.3254 56.89V50.98C23.3254 49.26 23.7854 48.03 24.7054 47.29C25.6454 46.55 27.1754 46.18 29.2954 46.18C31.8154 46.18 33.2954 46.75 33.7354 47.89V46.48H36.2554V62.38C36.2554 63.72 36.0054 64.77 35.5054 65.53C35.0054 66.29 34.2554 66.82 33.2554 67.12C32.2554 67.44 30.9554 67.6 29.3554 67.6ZM29.6854 59.5C31.1054 59.5 32.1054 59.33 32.6854 58.99C33.2654 58.65 33.5554 58.01 33.5554 57.07V50.5C33.5554 49.84 33.4454 49.34 33.2254 49C33.0254 48.66 32.6454 48.42 32.0854 48.28C31.5254 48.12 30.7054 48.04 29.6254 48.04C28.6054 48.04 27.8354 48.11 27.3154 48.25C26.8154 48.39 26.4654 48.64 26.2654 49C26.0854 49.34 25.9954 49.84 25.9954 50.5V57.07C25.9954 57.75 26.0954 58.26 26.2954 58.6C26.4954 58.94 26.8554 59.18 27.3754 59.32C27.8954 59.44 28.6654 59.5 29.6854 59.5ZM40.9455 41.23H43.6455V44.05H40.9455V41.23ZM40.9455 46.48H43.6455V61H40.9455V46.48ZM61.7223 61.3C60.6423 61.3 59.7723 61.24 59.1123 61.12C58.4723 61.02 57.8323 60.82 57.1923 60.52C55.8923 59.9 55.2423 58.48 55.2423 56.26V40H57.9423V44.35V46.06C57.9223 46.58 57.9123 47.16 57.9123 47.8C58.0123 47.34 58.4323 46.95 59.1723 46.63C59.9323 46.33 61.0323 46.18 62.4723 46.18C66.4723 46.18 68.4723 47.55 68.4723 50.29V56.26C68.4723 57.12 68.3423 57.87 68.0823 58.51C67.8423 59.15 67.5223 59.65 67.1223 60.01C66.7623 60.35 66.2623 60.62 65.6223 60.82C65.0023 61.02 64.3823 61.15 63.7623 61.21C63.2023 61.27 62.5223 61.3 61.7223 61.3ZM61.7823 59.53C62.8223 59.53 63.6123 59.46 64.1523 59.32C64.7123 59.16 65.1123 58.88 65.3523 58.48C65.5923 58.08 65.7123 57.47 65.7123 56.65V50.95C65.7123 50.13 65.5923 49.52 65.3523 49.12C65.1123 48.7 64.7123 48.43 64.1523 48.31C63.6123 48.17 62.8123 48.1 61.7523 48.1C60.7723 48.1 60.0123 48.18 59.4723 48.34C58.9323 48.5 58.5423 48.79 58.3023 49.21C58.0623 49.61 57.9423 50.19 57.9423 50.95V56.65C57.9423 57.47 58.0523 58.08 58.2723 58.48C58.5123 58.88 58.9023 59.16 59.4423 59.32C59.9823 59.46 60.7623 59.53 61.7823 59.53ZM78.7354 61.3C74.2954 61.3 72.0754 59.82 72.0754 56.86V51.13C72.0754 49.37 72.5754 48.11 73.5754 47.35C74.5954 46.57 76.2354 46.18 78.4954 46.18C80.6354 46.18 82.1754 46.55 83.1154 47.29C84.0754 48.03 84.5554 49.31 84.5554 51.13V54.34H74.8054V56.53C74.8054 57.53 75.1554 58.25 75.8554 58.69C76.5554 59.13 77.6354 59.35 79.0954 59.35C80.4754 59.35 82.1054 59.11 83.9854 58.63V60.7C82.1454 61.1 80.3954 61.3 78.7354 61.3ZM81.8554 52.57V50.29C81.8554 49.41 81.5854 48.81 81.0454 48.49C80.5254 48.15 79.6254 47.98 78.3454 47.98C77.1054 47.98 76.2054 48.15 75.6454 48.49C75.0854 48.81 74.8054 49.41 74.8054 50.29V52.57H81.8554ZM88.6701 40H91.3701V61H88.6701V40ZM100.523 61.3C99.1429 61.3 98.0729 61.17 97.3129 60.91C96.5729 60.65 96.0329 60.19 95.6929 59.53C95.3729 58.87 95.2129 57.92 95.2129 56.68C95.2129 55.58 95.3629 54.73 95.6629 54.13C95.9829 53.51 96.5129 53.07 97.2529 52.81C98.0129 52.55 99.0829 52.42 100.463 52.42H104.813V50.11C104.813 49.57 104.703 49.16 104.483 48.88C104.283 48.58 103.933 48.37 103.433 48.25C102.953 48.13 102.243 48.07 101.303 48.07C99.8029 48.07 98.1429 48.19 96.3229 48.43V46.45C98.3029 46.27 100.093 46.18 101.693 46.18C103.373 46.18 104.613 46.31 105.413 46.57C106.213 46.81 106.763 47.24 107.063 47.86C107.363 48.48 107.513 49.44 107.513 50.74V61H104.903V59.62C104.683 60.74 103.223 61.3 100.523 61.3ZM100.973 59.53C101.953 59.53 102.783 59.46 103.463 59.32C104.363 59.14 104.813 58.72 104.813 58.06V54.1H100.643C99.7829 54.1 99.1629 54.17 98.7829 54.31C98.4029 54.43 98.1529 54.67 98.0329 55.03C97.9129 55.39 97.8529 55.97 97.8529 56.77C97.8529 57.49 97.9229 58.05 98.0629 58.45C98.2029 58.83 98.4529 59.11 98.8129 59.29C99.1729 59.45 99.7129 59.53 100.433 59.53H100.973ZM112.225 41.23H114.925V44.05H112.225V41.23ZM110.095 67.6C109.535 67.6 109.025 67.56 108.565 67.48V65.71C108.985 65.79 109.365 65.83 109.705 65.83C110.585 65.83 111.225 65.65 111.625 65.29C112.025 64.95 112.225 64.32 112.225 63.4V46.48H114.925V63.19C114.925 64.81 114.545 65.95 113.785 66.61C113.025 67.27 111.795 67.6 110.095 67.6ZM124.078 61.3C122.698 61.3 121.628 61.17 120.868 60.91C120.128 60.65 119.588 60.19 119.248 59.53C118.928 58.87 118.768 57.92 118.768 56.68C118.768 55.58 118.918 54.73 119.218 54.13C119.538 53.51 120.068 53.07 120.808 52.81C121.568 52.55 122.638 52.42 124.018 52.42H128.368V50.11C128.368 49.57 128.258 49.16 128.038 48.88C127.838 48.58 127.488 48.37 126.988 48.25C126.508 48.13 125.798 48.07 124.858 48.07C123.358 48.07 121.698 48.19 119.878 48.43V46.45C121.858 46.27 123.648 46.18 125.248 46.18C126.928 46.18 128.168 46.31 128.968 46.57C129.768 46.81 130.318 47.24 130.618 47.86C130.918 48.48 131.068 49.44 131.068 50.74V61H128.458V59.62C128.238 60.74 126.778 61.3 124.078 61.3ZM124.528 59.53C125.508 59.53 126.338 59.46 127.018 59.32C127.918 59.14 128.368 58.72 128.368 58.06V54.1H124.198C123.338 54.1 122.718 54.17 122.338 54.31C121.958 54.43 121.708 54.67 121.588 55.03C121.468 55.39 121.408 55.97 121.408 56.77C121.408 57.49 121.478 58.05 121.618 58.45C121.758 58.83 122.008 59.11 122.368 59.29C122.728 59.45 123.268 59.53 123.988 59.53H124.528ZM135.75 46.48H138.3V48.85C138.3 48.39 138.5 47.96 138.9 47.56C139.3 47.14 139.81 46.81 140.43 46.57C141.05 46.31 141.66 46.18 142.26 46.18H143.58V48.49H142.08C140.8 48.49 139.87 48.66 139.29 49C138.73 49.32 138.45 49.91 138.45 50.77V61H135.75V46.48ZM153.362 41.53H166.742V43.57H156.272V49.93H165.752V51.97H156.272V61H153.362V41.53ZM169.969 41.23H172.669V44.05H169.969V41.23ZM169.969 46.48H172.669V61H169.969V46.48ZM182.842 67.6C180.862 67.6 179.192 67.49 177.832 67.27V65.35C180.232 65.63 181.982 65.77 183.082 65.77C184.462 65.77 185.462 65.55 186.082 65.11C186.722 64.67 187.042 63.94 187.042 62.92V59.44C187.002 60.08 186.562 60.55 185.722 60.85C184.902 61.15 183.862 61.3 182.602 61.3C181.102 61.3 179.932 61.16 179.092 60.88C178.272 60.6 177.682 60.14 177.322 59.5C176.982 58.86 176.812 57.99 176.812 56.89V50.98C176.812 49.26 177.272 48.03 178.192 47.29C179.132 46.55 180.662 46.18 182.782 46.18C185.302 46.18 186.782 46.75 187.222 47.89V46.48H189.742V62.38C189.742 63.72 189.492 64.77 188.992 65.53C188.492 66.29 187.742 66.82 186.742 67.12C185.742 67.44 184.442 67.6 182.842 67.6ZM183.172 59.5C184.592 59.5 185.592 59.33 186.172 58.99C186.752 58.65 187.042 58.01 187.042 57.07V50.5C187.042 49.84 186.932 49.34 186.712 49C186.512 48.66 186.132 48.42 185.572 48.28C185.012 48.12 184.192 48.04 183.112 48.04C182.092 48.04 181.322 48.11 180.802 48.25C180.302 48.39 179.952 48.64 179.752 49C179.572 49.34 179.482 49.84 179.482 50.5V57.07C179.482 57.75 179.582 58.26 179.782 58.6C179.982 58.94 180.342 59.18 180.862 59.32C181.382 59.44 182.152 59.5 183.172 59.5ZM194.432 46.48H197.132V48.25C197.412 46.87 199.042 46.18 202.022 46.18C204.442 46.18 205.952 46.84 206.552 48.16C206.732 47.52 207.272 47.03 208.172 46.69C209.092 46.35 210.212 46.18 211.532 46.18C213.332 46.18 214.602 46.52 215.342 47.2C216.082 47.86 216.452 48.91 216.452 50.35V61H213.752V50.53C213.752 50.15 213.722 49.84 213.662 49.6C213.602 49.36 213.482 49.12 213.302 48.88C212.902 48.38 212.012 48.13 210.632 48.13C209.572 48.13 208.782 48.2 208.262 48.34C207.742 48.48 207.382 48.72 207.182 49.06C207.002 49.4 206.912 49.89 206.912 50.53V61H204.212V50.53C204.212 50.15 204.182 49.84 204.122 49.6C204.062 49.36 203.942 49.12 203.762 48.88C203.362 48.38 202.482 48.13 201.122 48.13C200.022 48.13 199.192 48.2 198.632 48.34C198.072 48.48 197.682 48.72 197.462 49.06C197.242 49.38 197.132 49.87 197.132 50.53V61H194.432V46.48ZM225.591 61.3C224.211 61.3 223.141 61.17 222.381 60.91C221.641 60.65 221.101 60.19 220.761 59.53C220.441 58.87 220.281 57.92 220.281 56.68C220.281 55.58 220.431 54.73 220.731 54.13C221.051 53.51 221.581 53.07 222.321 52.81C223.081 52.55 224.151 52.42 225.531 52.42H229.881V50.11C229.881 49.57 229.771 49.16 229.551 48.88C229.351 48.58 229.001 48.37 228.501 48.25C228.021 48.13 227.311 48.07 226.371 48.07C224.871 48.07 223.211 48.19 221.391 48.43V46.45C223.371 46.27 225.161 46.18 226.761 46.18C228.441 46.18 229.681 46.31 230.481 46.57C231.281 46.81 231.831 47.24 232.131 47.86C232.431 48.48 232.581 49.44 232.581 50.74V61H229.971V59.62C229.751 60.74 228.291 61.3 225.591 61.3ZM226.041 59.53C227.021 59.53 227.851 59.46 228.531 59.32C229.431 59.14 229.881 58.72 229.881 58.06V54.1H225.711C224.851 54.1 224.231 54.17 223.851 54.31C223.471 54.43 223.221 54.67 223.101 55.03C222.981 55.39 222.921 55.97 222.921 56.77C222.921 57.49 222.991 58.05 223.131 58.45C223.271 58.83 223.521 59.11 223.881 59.29C224.241 59.45 224.781 59.53 225.501 59.53H226.041ZM237.474 57.76H240.654L237.834 64.36H236.094L237.474 57.76ZM252.034 41.53H254.944V49.93H265.294V41.53H268.204V61H265.294V51.97H254.944V61H252.034V41.53ZM278.045 43.57H271.445V41.53H287.555V43.57H280.985V61H278.045V43.57ZM290.793 41.53H295.143L301.383 57.73L301.473 57.76L307.383 41.53H311.583V61H309.033V44.53H308.883L302.613 61H300.003L293.553 44.53H293.403V61H290.793V41.53ZM316.633 41.53H319.543V58.96H329.113V61H316.633V41.53ZM332.249 57.76H335.429L332.609 64.36H330.869L332.249 57.76ZM351.819 61.3C350.379 61.3 349.249 61.16 348.429 60.88C347.609 60.58 347.009 60.1 346.629 59.44C346.269 58.78 346.089 57.86 346.089 56.68V50.29C346.089 48.83 346.539 47.78 347.439 47.14C348.359 46.5 349.869 46.18 351.969 46.18C353.229 46.18 354.309 46.34 355.209 46.66C356.129 46.98 356.599 47.44 356.619 48.04H356.679L356.619 44.35V40H359.319V61H356.679V59.29C356.679 59.83 356.249 60.29 355.389 60.67C354.529 61.09 353.339 61.3 351.819 61.3ZM352.389 59.44C353.889 59.44 354.969 59.27 355.629 58.93C356.289 58.59 356.619 58.01 356.619 57.19V50.02C356.619 48.72 355.289 48.07 352.629 48.07C351.029 48.07 349.989 48.19 349.509 48.43C349.009 48.67 348.759 49.2 348.759 50.02V57.19C348.759 58.01 349.029 58.59 349.569 58.93C350.129 59.27 351.069 59.44 352.389 59.44ZM368.238 61.3C366.858 61.3 365.788 61.17 365.028 60.91C364.288 60.65 363.748 60.19 363.408 59.53C363.088 58.87 362.928 57.92 362.928 56.68C362.928 55.58 363.078 54.73 363.378 54.13C363.698 53.51 364.228 53.07 364.968 52.81C365.728 52.55 366.798 52.42 368.178 52.42H372.528V50.11C372.528 49.57 372.418 49.16 372.198 48.88C371.998 48.58 371.648 48.37 371.148 48.25C370.668 48.13 369.958 48.07 369.018 48.07C367.518 48.07 365.858 48.19 364.038 48.43V46.45C366.018 46.27 367.808 46.18 369.408 46.18C371.088 46.18 372.328 46.31 373.128 46.57C373.928 46.81 374.478 47.24 374.778 47.86C375.078 48.48 375.228 49.44 375.228 50.74V61H372.618V59.62C372.398 60.74 370.938 61.3 368.238 61.3ZM368.688 59.53C369.668 59.53 370.498 59.46 371.178 59.32C372.078 59.14 372.528 58.72 372.528 58.06V54.1H368.358C367.498 54.1 366.878 54.17 366.498 54.31C366.118 54.43 365.868 54.67 365.748 55.03C365.628 55.39 365.568 55.97 365.568 56.77C365.568 57.49 365.638 58.05 365.778 58.45C365.918 58.83 366.168 59.11 366.528 59.29C366.888 59.45 367.428 59.53 368.148 59.53H368.688ZM379.91 46.48H382.61V48.25C382.89 46.87 384.48 46.18 387.38 46.18C389.24 46.18 390.54 46.52 391.28 47.2C392.04 47.86 392.42 48.91 392.42 50.35V61H389.72V50.5C389.72 50.12 389.69 49.81 389.63 49.57C389.57 49.33 389.45 49.09 389.27 48.85C388.87 48.35 387.98 48.1 386.6 48.1C385.54 48.1 384.72 48.18 384.14 48.34C383.58 48.48 383.18 48.72 382.94 49.06C382.72 49.4 382.61 49.88 382.61 50.5V61H379.91V46.48ZM411.792 61.3C406.332 61.3 403.602 59.54 403.602 56.02V46.78C403.602 43.06 406.332 41.2 411.792 41.2C413.652 41.2 415.432 41.39 417.132 41.77V43.93C415.212 43.45 413.452 43.21 411.852 43.21C411.072 43.21 410.392 43.26 409.812 43.36C409.232 43.44 408.672 43.59 408.132 43.81C406.972 44.31 406.392 45.29 406.392 46.75V55.87C406.392 58.11 408.252 59.23 411.972 59.23C413.572 59.23 415.332 58.99 417.252 58.51V60.73C415.552 61.11 413.732 61.3 411.792 61.3ZM426.745 61.3C425.085 61.3 423.105 61.14 420.805 60.82V58.39C423.125 58.89 425.165 59.14 426.925 59.14C428.405 59.14 429.485 58.98 430.165 58.66C430.845 58.32 431.185 57.7 431.185 56.8V54.28C431.185 53.44 430.945 52.85 430.465 52.51C429.985 52.17 429.145 52 427.945 52H425.665C423.765 52 422.415 51.62 421.615 50.86C420.815 50.1 420.415 48.92 420.415 47.32V45.76C420.415 44.7 420.645 43.84 421.105 43.18C421.585 42.52 422.375 42.03 423.475 41.71C424.595 41.39 426.125 41.23 428.065 41.23C429.365 41.23 431.035 41.34 433.075 41.56V43.75C430.795 43.41 429.055 43.24 427.855 43.24C425.995 43.24 424.765 43.42 424.165 43.78C423.545 44.16 423.235 44.79 423.235 45.67V47.89C423.235 48.57 423.475 49.07 423.955 49.39C424.455 49.69 425.305 49.84 426.505 49.84H428.845C430.185 49.84 431.225 50 431.965 50.32C432.725 50.64 433.255 51.13 433.555 51.79C433.875 52.43 434.035 53.3 434.035 54.4V55.81C434.035 57.19 433.775 58.28 433.255 59.08C432.755 59.88 431.975 60.45 430.915 60.79C429.855 61.13 428.465 61.3 426.745 61.3ZM443.825 61.3C442.165 61.3 440.185 61.14 437.885 60.82V58.39C440.205 58.89 442.245 59.14 444.005 59.14C445.485 59.14 446.565 58.98 447.245 58.66C447.925 58.32 448.265 57.7 448.265 56.8V54.28C448.265 53.44 448.025 52.85 447.545 52.51C447.065 52.17 446.225 52 445.025 52H442.745C440.845 52 439.495 51.62 438.695 50.86C437.895 50.1 437.495 48.92 437.495 47.32V45.76C437.495 44.7 437.725 43.84 438.185 43.18C438.665 42.52 439.455 42.03 440.555 41.71C441.675 41.39 443.205 41.23 445.145 41.23C446.445 41.23 448.115 41.34 450.155 41.56V43.75C447.875 43.41 446.135 43.24 444.935 43.24C443.075 43.24 441.845 43.42 441.245 43.78C440.625 44.16 440.315 44.79 440.315 45.67V47.89C440.315 48.57 440.555 49.07 441.035 49.39C441.535 49.69 442.385 49.84 443.585 49.84H445.925C447.265 49.84 448.305 50 449.045 50.32C449.805 50.64 450.335 51.13 450.635 51.79C450.955 52.43 451.115 53.3 451.115 54.4V55.81C451.115 57.19 450.855 58.28 450.335 59.08C449.835 59.88 449.055 60.45 447.995 60.79C446.935 61.13 445.545 61.3 443.825 61.3ZM466.409 64.81C463.509 60.51 462.059 56.48 462.059 52.72C462.059 50.7 462.409 48.76 463.109 46.9C463.829 45.02 464.929 42.93 466.409 40.63H468.839C467.419 43.11 466.369 45.28 465.689 47.14C465.009 49 464.669 50.86 464.669 52.72C464.669 54.6 465.009 56.5 465.689 58.42C466.389 60.32 467.439 62.45 468.839 64.81H466.409ZM478.441 61.3C477.361 61.3 476.491 61.24 475.831 61.12C475.191 61.02 474.551 60.82 473.911 60.52C472.611 59.9 471.961 58.48 471.961 56.26V40H474.661V44.35V46.06C474.641 46.58 474.631 47.16 474.631 47.8C474.731 47.34 475.151 46.95 475.891 46.63C476.651 46.33 477.751 46.18 479.191 46.18C483.191 46.18 485.191 47.55 485.191 50.29V56.26C485.191 57.12 485.061 57.87 484.801 58.51C484.561 59.15 484.241 59.65 483.841 60.01C483.481 60.35 482.981 60.62 482.341 60.82C481.721 61.02 481.101 61.15 480.481 61.21C479.921 61.27 479.241 61.3 478.441 61.3ZM478.501 59.53C479.541 59.53 480.331 59.46 480.871 59.32C481.431 59.16 481.831 58.88 482.071 58.48C482.311 58.08 482.431 57.47 482.431 56.65V50.95C482.431 50.13 482.311 49.52 482.071 49.12C481.831 48.7 481.431 48.43 480.871 48.31C480.331 48.17 479.531 48.1 478.471 48.1C477.491 48.1 476.731 48.18 476.191 48.34C475.651 48.5 475.261 48.79 475.021 49.21C474.781 49.61 474.661 50.19 474.661 50.95V56.65C474.661 57.47 474.771 58.08 474.991 58.48C475.231 58.88 475.621 59.16 476.161 59.32C476.701 59.46 477.481 59.53 478.501 59.53ZM495.454 61.3C491.014 61.3 488.794 59.82 488.794 56.86V51.13C488.794 49.37 489.294 48.11 490.294 47.35C491.314 46.57 492.954 46.18 495.214 46.18C497.354 46.18 498.894 46.55 499.834 47.29C500.794 48.03 501.274 49.31 501.274 51.13V54.34H491.524V56.53C491.524 57.53 491.874 58.25 492.574 58.69C493.274 59.13 494.354 59.35 495.814 59.35C497.194 59.35 498.824 59.11 500.704 58.63V60.7C498.864 61.1 497.114 61.3 495.454 61.3ZM498.574 52.57V50.29C498.574 49.41 498.304 48.81 497.764 48.49C497.244 48.15 496.344 47.98 495.064 47.98C493.824 47.98 492.924 48.15 492.364 48.49C491.804 48.81 491.524 49.41 491.524 50.29V52.57H498.574ZM510.879 67.6C508.899 67.6 507.229 67.49 505.869 67.27V65.35C508.269 65.63 510.019 65.77 511.119 65.77C512.499 65.77 513.499 65.55 514.119 65.11C514.759 64.67 515.079 63.94 515.079 62.92V59.44C515.039 60.08 514.599 60.55 513.759 60.85C512.939 61.15 511.899 61.3 510.639 61.3C509.139 61.3 507.969 61.16 507.129 60.88C506.309 60.6 505.719 60.14 505.359 59.5C505.019 58.86 504.849 57.99 504.849 56.89V50.98C504.849 49.26 505.309 48.03 506.229 47.29C507.169 46.55 508.699 46.18 510.819 46.18C513.339 46.18 514.819 46.75 515.259 47.89V46.48H517.779V62.38C517.779 63.72 517.529 64.77 517.029 65.53C516.529 66.29 515.779 66.82 514.779 67.12C513.779 67.44 512.479 67.6 510.879 67.6ZM511.209 59.5C512.629 59.5 513.629 59.33 514.209 58.99C514.789 58.65 515.079 58.01 515.079 57.07V50.5C515.079 49.84 514.969 49.34 514.749 49C514.549 48.66 514.169 48.42 513.609 48.28C513.049 48.12 512.229 48.04 511.149 48.04C510.129 48.04 509.359 48.11 508.839 48.25C508.339 48.39 507.989 48.64 507.789 49C507.609 49.34 507.519 49.84 507.519 50.5V57.07C507.519 57.75 507.619 58.26 507.819 58.6C508.019 58.94 508.379 59.18 508.899 59.32C509.419 59.44 510.189 59.5 511.209 59.5ZM522.469 41.23H525.169V44.05H522.469V41.23ZM522.469 46.48H525.169V61H522.469V46.48ZM529.852 46.48H532.552V48.25C532.832 46.87 534.422 46.18 537.322 46.18C539.182 46.18 540.482 46.52 541.222 47.2C541.982 47.86 542.362 48.91 542.362 50.35V61H539.662V50.5C539.662 50.12 539.632 49.81 539.572 49.57C539.512 49.33 539.392 49.09 539.212 48.85C538.812 48.35 537.922 48.1 536.542 48.1C535.482 48.1 534.662 48.18 534.082 48.34C533.522 48.48 533.122 48.72 532.882 49.06C532.662 49.4 532.552 49.88 532.552 50.5V61H529.852V46.48ZM547.049 46.48H549.749V48.25C550.029 46.87 551.619 46.18 554.519 46.18C556.379 46.18 557.679 46.52 558.419 47.2C559.179 47.86 559.559 48.91 559.559 50.35V61H556.859V50.5C556.859 50.12 556.829 49.81 556.769 49.57C556.709 49.33 556.589 49.09 556.409 48.85C556.009 48.35 555.119 48.1 553.739 48.1C552.679 48.1 551.859 48.18 551.279 48.34C550.719 48.48 550.319 48.72 550.079 49.06C549.859 49.4 549.749 49.88 549.749 50.5V61H547.049V46.48ZM570.366 61.3C565.926 61.3 563.706 59.82 563.706 56.86V51.13C563.706 49.37 564.206 48.11 565.206 47.35C566.226 46.57 567.866 46.18 570.126 46.18C572.266 46.18 573.806 46.55 574.746 47.29C575.706 48.03 576.186 49.31 576.186 51.13V54.34H566.436V56.53C566.436 57.53 566.786 58.25 567.486 58.69C568.186 59.13 569.266 59.35 570.726 59.35C572.106 59.35 573.736 59.11 575.616 58.63V60.7C573.776 61.1 572.026 61.3 570.366 61.3ZM573.486 52.57V50.29C573.486 49.41 573.216 48.81 572.676 48.49C572.156 48.15 571.256 47.98 569.976 47.98C568.736 47.98 567.836 48.15 567.276 48.49C566.716 48.81 566.436 49.41 566.436 50.29V52.57H573.486ZM580.301 46.48H582.851V48.85C582.851 48.39 583.051 47.96 583.451 47.56C583.851 47.14 584.361 46.81 584.981 46.57C585.601 46.31 586.211 46.18 586.811 46.18H588.131V48.49H586.631C585.351 48.49 584.421 48.66 583.841 49C583.281 49.32 583.001 49.91 583.001 50.77V61H580.301V46.48ZM589.259 64.81C590.659 62.45 591.699 60.32 592.379 58.42C593.079 56.5 593.429 54.6 593.429 52.72C593.429 50.9 593.089 49.07 592.409 47.23C591.749 45.39 590.699 43.19 589.259 40.63H591.689C593.169 42.93 594.259 45.02 594.959 46.9C595.679 48.76 596.039 50.7 596.039 52.72C596.039 56.48 594.589 60.51 591.689 64.81H589.259Z" fill="black"/>
</svg>
