<svg width="858" height="67" viewBox="0 0 858 67" fill="none" xmlns="http://www.w3.org/2000/svg">
<path d="M36.32 5.52V50H29.024V30.544H8.096V50H0.8V5.52H8.096V24.592H29.024V5.52H36.32ZM49.637 10.064C48.3143 10.064 47.205 9.616 46.309 8.72C45.413 7.824 44.965 6.71467 44.965 5.392C44.965 4.06933 45.413 2.96 46.309 2.064C47.205 1.168 48.3143 0.719997 49.637 0.719997C50.917 0.719997 52.005 1.168 52.901 2.064C53.797 2.96 54.245 4.06933 54.245 5.392C54.245 6.71467 53.797 7.824 52.901 8.72C52.005 9.616 50.917 10.064 49.637 10.064ZM53.221 14.736V50H45.925V14.736H53.221ZM70.8 41.232L63.056 58.896H58.32L62.864 41.232H70.8ZM108.456 50.448C105.469 50.448 102.781 49.936 100.392 48.912C98.0027 47.8453 96.1253 46.352 94.76 44.432C93.3947 42.512 92.712 40.272 92.712 37.712H100.52C100.691 39.632 101.437 41.2107 102.76 42.448C104.125 43.6853 106.024 44.304 108.456 44.304C110.973 44.304 112.936 43.7067 114.344 42.512C115.752 41.2747 116.456 39.696 116.456 37.776C116.456 36.2827 116.008 35.0667 115.112 34.128C114.259 33.1893 113.171 32.464 111.848 31.952C110.568 31.44 108.776 30.8853 106.472 30.288C103.571 29.52 101.203 28.752 99.368 27.984C97.576 27.1733 96.04 25.936 94.76 24.272C93.48 22.608 92.84 20.3893 92.84 17.616C92.84 15.056 93.48 12.816 94.76 10.896C96.04 8.976 97.832 7.504 100.136 6.48C102.44 5.456 105.107 4.944 108.136 4.944C112.445 4.944 115.965 6.032 118.696 8.208C121.469 10.3413 123.005 13.2853 123.304 17.04H115.24C115.112 15.4187 114.344 14.032 112.936 12.88C111.528 11.728 109.672 11.152 107.368 11.152C105.277 11.152 103.571 11.6853 102.248 12.752C100.925 13.8187 100.264 15.3547 100.264 17.36C100.264 18.7253 100.669 19.856 101.48 20.752C102.333 21.6053 103.4 22.288 104.68 22.8C105.96 23.312 107.709 23.8667 109.928 24.464C112.872 25.2747 115.261 26.0853 117.096 26.896C118.973 27.7067 120.552 28.9653 121.832 30.672C123.155 32.336 123.816 34.576 123.816 37.392C123.816 39.6533 123.197 41.7867 121.96 43.792C120.765 45.7973 118.995 47.4187 116.648 48.656C114.344 49.8507 111.613 50.448 108.456 50.448ZM129.993 32.208C129.993 28.6667 130.718 25.5307 132.169 22.8C133.662 20.0693 135.668 17.9573 138.185 16.464C140.745 14.928 143.561 14.16 146.633 14.16C149.406 14.16 151.817 14.7147 153.865 15.824C155.956 16.8907 157.62 18.2347 158.857 19.856V14.736H166.217V50H158.857V44.752C157.62 46.416 155.934 47.8027 153.801 48.912C151.668 50.0213 149.236 50.576 146.505 50.576C143.476 50.576 140.702 49.808 138.185 48.272C135.668 46.6933 133.662 44.5173 132.169 41.744C130.718 38.928 129.993 35.7493 129.993 32.208ZM158.857 32.336C158.857 29.904 158.345 27.792 157.321 26C156.34 24.208 155.038 22.8427 153.417 21.904C151.796 20.9653 150.046 20.496 148.169 20.496C146.292 20.496 144.542 20.9653 142.921 21.904C141.3 22.8 139.977 24.144 138.953 25.936C137.972 27.6853 137.481 29.776 137.481 32.208C137.481 34.64 137.972 36.7733 138.953 38.608C139.977 40.4427 141.3 41.8507 142.921 42.832C144.585 43.7707 146.334 44.24 148.169 44.24C150.046 44.24 151.796 43.7707 153.417 42.832C155.038 41.8933 156.34 40.528 157.321 38.736C158.345 36.9013 158.857 34.768 158.857 32.336ZM207.544 14.736L185.912 66.576H178.36L185.528 49.424L171.64 14.736H179.768L189.688 41.616L199.992 14.736H207.544ZM210.618 32.208C210.618 28.6667 211.343 25.5307 212.794 22.8C214.287 20.0693 216.293 17.9573 218.81 16.464C221.37 14.928 224.186 14.16 227.258 14.16C230.031 14.16 232.442 14.7147 234.49 15.824C236.581 16.8907 238.245 18.2347 239.482 19.856V14.736H246.842V50H239.482V44.752C238.245 46.416 236.559 47.8027 234.426 48.912C232.293 50.0213 229.861 50.576 227.13 50.576C224.101 50.576 221.327 49.808 218.81 48.272C216.293 46.6933 214.287 44.5173 212.794 41.744C211.343 38.928 210.618 35.7493 210.618 32.208ZM239.482 32.336C239.482 29.904 238.97 27.792 237.946 26C236.965 24.208 235.663 22.8427 234.042 21.904C232.421 20.9653 230.671 20.496 228.794 20.496C226.917 20.496 225.167 20.9653 223.546 21.904C221.925 22.8 220.602 24.144 219.578 25.936C218.597 27.6853 218.106 29.776 218.106 32.208C218.106 34.64 218.597 36.7733 219.578 38.608C220.602 40.4427 221.925 41.8507 223.546 42.832C225.21 43.7707 226.959 44.24 228.794 44.24C230.671 44.24 232.421 43.7707 234.042 42.832C235.663 41.8933 236.965 40.528 237.946 38.736C238.97 36.9013 239.482 34.768 239.482 32.336ZM297.306 5.52V37.584C297.306 41.552 296.09 44.688 293.658 46.992C291.269 49.296 288.111 50.448 284.186 50.448C280.261 50.448 277.082 49.296 274.65 46.992C272.261 44.688 271.066 41.552 271.066 37.584H278.426C278.469 39.5467 278.959 41.104 279.898 42.256C280.879 43.408 282.309 43.984 284.186 43.984C286.063 43.984 287.493 43.408 288.474 42.256C289.455 41.0613 289.946 39.504 289.946 37.584V5.52H297.306ZM324.471 50.576C321.143 50.576 318.135 49.8293 315.447 48.336C312.759 46.8 310.647 44.6667 309.111 41.936C307.575 39.1627 306.807 35.9627 306.807 32.336C306.807 28.752 307.596 25.5733 309.175 22.8C310.754 20.0267 312.908 17.8933 315.639 16.4C318.37 14.9067 321.42 14.16 324.791 14.16C328.162 14.16 331.212 14.9067 333.943 16.4C336.674 17.8933 338.828 20.0267 340.407 22.8C341.986 25.5733 342.775 28.752 342.775 32.336C342.775 35.92 341.964 39.0987 340.343 41.872C338.722 44.6453 336.503 46.8 333.687 48.336C330.914 49.8293 327.842 50.576 324.471 50.576ZM324.471 44.24C326.348 44.24 328.098 43.792 329.719 42.896C331.383 42 332.727 40.656 333.751 38.864C334.775 37.072 335.287 34.896 335.287 32.336C335.287 29.776 334.796 27.6213 333.815 25.872C332.834 24.08 331.532 22.736 329.911 21.84C328.29 20.944 326.54 20.496 324.663 20.496C322.786 20.496 321.036 20.944 319.415 21.84C317.836 22.736 316.578 24.08 315.639 25.872C314.7 27.6213 314.231 29.776 314.231 32.336C314.231 36.1333 315.191 39.0773 317.111 41.168C319.074 43.216 321.527 44.24 324.471 44.24ZM368.228 14.16C370.916 14.16 373.305 14.736 375.396 15.888C377.529 17.04 379.193 18.7467 380.388 21.008C381.625 23.2693 382.244 26 382.244 29.2V50H375.012V30.288C375.012 27.1307 374.222 24.72 372.644 23.056C371.065 21.3493 368.91 20.496 366.18 20.496C363.449 20.496 361.273 21.3493 359.652 23.056C358.073 24.72 357.284 27.1307 357.284 30.288V50H349.988V2.64H357.284V18.832C358.521 17.3387 360.078 16.1867 361.956 15.376C363.876 14.5653 365.966 14.16 368.228 14.16ZM389.118 32.208C389.118 28.6667 389.843 25.5307 391.294 22.8C392.787 20.0693 394.793 17.9573 397.31 16.464C399.87 14.928 402.686 14.16 405.758 14.16C408.531 14.16 410.942 14.7147 412.99 15.824C415.081 16.8907 416.745 18.2347 417.982 19.856V14.736H425.342V50H417.982V44.752C416.745 46.416 415.059 47.8027 412.926 48.912C410.793 50.0213 408.361 50.576 405.63 50.576C402.601 50.576 399.827 49.808 397.31 48.272C394.793 46.6933 392.787 44.5173 391.294 41.744C389.843 38.928 389.118 35.7493 389.118 32.208ZM417.982 32.336C417.982 29.904 417.47 27.792 416.446 26C415.465 24.208 414.163 22.8427 412.542 21.904C410.921 20.9653 409.171 20.496 407.294 20.496C405.417 20.496 403.667 20.9653 402.046 21.904C400.425 22.8 399.102 24.144 398.078 25.936C397.097 27.6853 396.606 29.776 396.606 32.208C396.606 34.64 397.097 36.7733 398.078 38.608C399.102 40.4427 400.425 41.8507 402.046 42.832C403.71 43.7707 405.459 44.24 407.294 44.24C409.171 44.24 410.921 43.7707 412.542 42.832C414.163 41.8933 415.465 40.528 416.446 38.736C417.47 36.9013 417.982 34.768 417.982 32.336ZM452.717 14.16C455.49 14.16 457.965 14.736 460.141 15.888C462.36 17.04 464.088 18.7467 465.325 21.008C466.562 23.2693 467.181 26 467.181 29.2V50H459.949V30.288C459.949 27.1307 459.16 24.72 457.581 23.056C456.002 21.3493 453.848 20.496 451.117 20.496C448.386 20.496 446.21 21.3493 444.589 23.056C443.01 24.72 442.221 27.1307 442.221 30.288V50H434.925V14.736H442.221V18.768C443.416 17.3173 444.93 16.1867 446.765 15.376C448.642 14.5653 450.626 14.16 452.717 14.16ZM508.808 31.504C508.808 32.8267 508.722 34.0213 508.552 35.088H481.608C481.821 37.904 482.866 40.1653 484.744 41.872C486.621 43.5787 488.925 44.432 491.656 44.432C495.581 44.432 498.354 42.7893 499.976 39.504H507.847C506.781 42.7467 504.84 45.4133 502.024 47.504C499.25 49.552 495.794 50.576 491.656 50.576C488.285 50.576 485.256 49.8293 482.568 48.336C479.922 46.8 477.832 44.6667 476.296 41.936C474.802 39.1627 474.056 35.9627 474.056 32.336C474.056 28.7093 474.781 25.5307 476.232 22.8C477.725 20.0267 479.794 17.8933 482.44 16.4C485.128 14.9067 488.2 14.16 491.656 14.16C494.984 14.16 497.949 14.8853 500.552 16.336C503.154 17.7867 505.181 19.8347 506.632 22.48C508.082 25.0827 508.808 28.0907 508.808 31.504ZM501.192 29.2C501.149 26.512 500.189 24.3573 498.312 22.736C496.434 21.1147 494.109 20.304 491.336 20.304C488.818 20.304 486.664 21.1147 484.872 22.736C483.08 24.3147 482.013 26.4693 481.672 29.2H501.192ZM528.788 50.576C526.014 50.576 523.518 50.0853 521.3 49.104C519.124 48.08 517.396 46.7147 516.116 45.008C514.836 43.2587 514.153 41.3173 514.068 39.184H521.62C521.748 40.6773 522.452 41.936 523.732 42.96C525.054 43.9413 526.697 44.432 528.66 44.432C530.708 44.432 532.286 44.048 533.396 43.28C534.548 42.4693 535.124 41.4453 535.124 40.208C535.124 38.8853 534.484 37.904 533.204 37.264C531.966 36.624 529.982 35.92 527.252 35.152C524.606 34.4267 522.452 33.7227 520.788 33.04C519.124 32.3573 517.673 31.312 516.436 29.904C515.241 28.496 514.644 26.64 514.644 24.336C514.644 22.4587 515.198 20.752 516.308 19.216C517.417 17.6373 518.996 16.4 521.044 15.504C523.134 14.608 525.524 14.16 528.212 14.16C532.222 14.16 535.444 15.184 537.876 17.232C540.35 19.2373 541.673 21.9893 541.844 25.488H534.548C534.42 23.9093 533.78 22.6507 532.628 21.712C531.476 20.7733 529.918 20.304 527.956 20.304C526.036 20.304 524.564 20.6667 523.54 21.392C522.516 22.1173 522.004 23.0773 522.004 24.272C522.004 25.2107 522.345 26 523.028 26.64C523.71 27.28 524.542 27.792 525.524 28.176C526.505 28.5173 527.956 28.9653 529.876 29.52C532.436 30.2027 534.526 30.9067 536.148 31.632C537.812 32.3147 539.241 33.3387 540.436 34.704C541.63 36.0693 542.249 37.8827 542.292 40.144C542.292 42.1493 541.737 43.9413 540.628 45.52C539.518 47.0987 537.94 48.336 535.892 49.232C533.886 50.128 531.518 50.576 528.788 50.576ZM581.456 50.448C578.469 50.448 575.781 49.936 573.392 48.912C571.003 47.8453 569.125 46.352 567.76 44.432C566.395 42.512 565.712 40.272 565.712 37.712H573.52C573.691 39.632 574.437 41.2107 575.76 42.448C577.125 43.6853 579.024 44.304 581.456 44.304C583.973 44.304 585.936 43.7067 587.344 42.512C588.752 41.2747 589.456 39.696 589.456 37.776C589.456 36.2827 589.008 35.0667 588.112 34.128C587.259 33.1893 586.171 32.464 584.848 31.952C583.568 31.44 581.776 30.8853 579.472 30.288C576.571 29.52 574.203 28.752 572.368 27.984C570.576 27.1733 569.04 25.936 567.76 24.272C566.48 22.608 565.84 20.3893 565.84 17.616C565.84 15.056 566.48 12.816 567.76 10.896C569.04 8.976 570.832 7.504 573.136 6.48C575.44 5.456 578.107 4.944 581.136 4.944C585.445 4.944 588.965 6.032 591.696 8.208C594.469 10.3413 596.005 13.2853 596.304 17.04H588.24C588.112 15.4187 587.344 14.032 585.936 12.88C584.528 11.728 582.672 11.152 580.368 11.152C578.277 11.152 576.571 11.6853 575.248 12.752C573.925 13.8187 573.264 15.3547 573.264 17.36C573.264 18.7253 573.669 19.856 574.48 20.752C575.333 21.6053 576.4 22.288 577.68 22.8C578.96 23.312 580.709 23.8667 582.928 24.464C585.872 25.2747 588.261 26.0853 590.096 26.896C591.973 27.7067 593.552 28.9653 594.832 30.672C596.155 32.336 596.816 34.576 596.816 37.392C596.816 39.6533 596.197 41.7867 594.96 43.792C593.765 45.7973 591.995 47.4187 589.648 48.656C587.344 49.8507 584.613 50.448 581.456 50.448ZM637.745 31.504C637.745 32.8267 637.66 34.0213 637.489 35.088H610.545C610.758 37.904 611.804 40.1653 613.681 41.872C615.558 43.5787 617.862 44.432 620.593 44.432C624.518 44.432 627.292 42.7893 628.913 39.504H636.785C635.718 42.7467 633.777 45.4133 630.961 47.504C628.188 49.552 624.732 50.576 620.593 50.576C617.222 50.576 614.193 49.8293 611.505 48.336C608.86 46.8 606.769 44.6667 605.233 41.936C603.74 39.1627 602.993 35.9627 602.993 32.336C602.993 28.7093 603.718 25.5307 605.169 22.8C606.662 20.0267 608.732 17.8933 611.377 16.4C614.065 14.9067 617.137 14.16 620.593 14.16C623.921 14.16 626.886 14.8853 629.489 16.336C632.092 17.7867 634.118 19.8347 635.569 22.48C637.02 25.0827 637.745 28.0907 637.745 31.504ZM630.129 29.2C630.086 26.512 629.126 24.3573 627.249 22.736C625.372 21.1147 623.046 20.304 620.273 20.304C617.756 20.304 615.601 21.1147 613.809 22.736C612.017 24.3147 610.95 26.4693 610.609 29.2H630.129ZM653.437 20.688V40.208C653.437 41.5307 653.736 42.4907 654.333 43.088C654.973 43.6427 656.04 43.92 657.533 43.92H662.013V50H656.253C652.968 50 650.45 49.232 648.701 47.696C646.952 46.16 646.077 43.664 646.077 40.208V20.688H641.917V14.736H646.077V5.968H653.437V14.736H662.013V20.688H653.437ZM672.45 10.064C671.127 10.064 670.018 9.616 669.122 8.72C668.226 7.824 667.778 6.71467 667.778 5.392C667.778 4.06933 668.226 2.96 669.122 2.064C670.018 1.168 671.127 0.719997 672.45 0.719997C673.73 0.719997 674.818 1.168 675.714 2.064C676.61 2.96 677.058 4.06933 677.058 5.392C677.058 6.71467 676.61 7.824 675.714 8.72C674.818 9.616 673.73 10.064 672.45 10.064ZM676.034 14.736V50H668.738V14.736H676.034ZM683.181 32.208C683.181 28.6667 683.906 25.5307 685.357 22.8C686.85 20.0693 688.855 17.9573 691.373 16.464C693.933 14.928 696.749 14.16 699.821 14.16C702.594 14.16 705.005 14.7147 707.053 15.824C709.143 16.8907 710.807 18.2347 712.045 19.856V14.736H719.405V50H712.045V44.752C710.807 46.416 709.122 47.8027 706.989 48.912C704.855 50.0213 702.423 50.576 699.693 50.576C696.663 50.576 693.89 49.808 691.373 48.272C688.855 46.6933 686.85 44.5173 685.357 41.744C683.906 38.928 683.181 35.7493 683.181 32.208ZM712.045 32.336C712.045 29.904 711.533 27.792 710.509 26C709.527 24.208 708.226 22.8427 706.605 21.904C704.983 20.9653 703.234 20.496 701.357 20.496C699.479 20.496 697.73 20.9653 696.109 21.904C694.487 22.8 693.165 24.144 692.141 25.936C691.159 27.6853 690.669 29.776 690.669 32.208C690.669 34.64 691.159 36.7733 692.141 38.608C693.165 40.4427 694.487 41.8507 696.109 42.832C697.773 43.7707 699.522 44.24 701.357 44.24C703.234 44.24 704.983 43.7707 706.605 42.832C708.226 41.8933 709.527 40.528 710.509 38.736C711.533 36.9013 712.045 34.768 712.045 32.336ZM776.348 14.736L765.404 50H757.724L750.62 23.952L743.516 50H735.836L724.828 14.736H732.252L739.612 43.088L747.1 14.736H754.716L761.884 42.96L769.18 14.736H776.348ZM779.368 32.208C779.368 28.6667 780.093 25.5307 781.544 22.8C783.037 20.0693 785.043 17.9573 787.56 16.464C790.12 14.928 792.936 14.16 796.008 14.16C798.781 14.16 801.192 14.7147 803.24 15.824C805.331 16.8907 806.995 18.2347 808.232 19.856V14.736H815.592V50H808.232V44.752C806.995 46.416 805.309 47.8027 803.176 48.912C801.043 50.0213 798.611 50.576 795.88 50.576C792.851 50.576 790.077 49.808 787.56 48.272C785.043 46.6933 783.037 44.5173 781.544 41.744C780.093 38.928 779.368 35.7493 779.368 32.208ZM808.232 32.336C808.232 29.904 807.72 27.792 806.696 26C805.715 24.208 804.413 22.8427 802.792 21.904C801.171 20.9653 799.421 20.496 797.544 20.496C795.667 20.496 793.917 20.9653 792.296 21.904C790.675 22.8 789.352 24.144 788.328 25.936C787.347 27.6853 786.856 29.776 786.856 32.208C786.856 34.64 787.347 36.7733 788.328 38.608C789.352 40.4427 790.675 41.8507 792.296 42.832C793.96 43.7707 795.709 44.24 797.544 44.24C799.421 44.24 801.171 43.7707 802.792 42.832C804.413 41.8933 805.715 40.528 806.696 38.736C807.72 36.9013 808.232 34.768 808.232 32.336ZM842.967 14.16C845.74 14.16 848.215 14.736 850.391 15.888C852.61 17.04 854.338 18.7467 855.575 21.008C856.812 23.2693 857.431 26 857.431 29.2V50H850.199V30.288C850.199 27.1307 849.41 24.72 847.831 23.056C846.252 21.3493 844.098 20.496 841.367 20.496C838.636 20.496 836.46 21.3493 834.839 23.056C833.26 24.72 832.471 27.1307 832.471 30.288V50H825.175V14.736H832.471V18.768C833.666 17.3173 835.18 16.1867 837.015 15.376C838.892 14.5653 840.876 14.16 842.967 14.16Z" fill="black"/>
</svg>
